M48
; DRILL file {KiCad 7.0.2} date Mon Aug  7 19:48:14 2023
; FORMAT={-:-/ absolute / inch / decimal}
; #@! TF.CreationDate,2023-08-07T19:48:14+09:00
; #@! TF.GenerationSoftware,Kicad,Pcbnew,7.0.2
; #@! TF.FileFunction,Plated,1,4,PTH
FMAT,2
INCH
; #@! TA.AperFunction,Plated,PTH,ViaDrill
T1C0.0157
; #@! TA.AperFunction,Plated,PTH,ComponentDrill
T2C0.0236
; #@! TA.AperFunction,Plated,PTH,ComponentDrill
T3C0.0287
; #@! TA.AperFunction,Plated,PTH,ComponentDrill
T4C0.0295
; #@! TA.AperFunction,Plated,PTH,ComponentDrill
T5C0.0315
; #@! TA.AperFunction,Plated,PTH,ComponentDrill
T6C0.0374
; #@! TA.AperFunction,Plated,PTH,ComponentDrill
T7C0.0394
; #@! TA.AperFunction,Plated,PTH,ComponentDrill
T8C0.0402
; #@! TA.AperFunction,Plated,PTH,ComponentDrill
T9C0.0472
; #@! TA.AperFunction,Plated,PTH,ComponentDrill
T10C0.1063
; #@! TA.AperFunction,Plated,PTH,ComponentDrill
T11C0.1260
%
G90
G05
T1
X4.725Y-3.5709
X4.7638Y-3.5994
X5.0959Y-3.9606
X5.0959Y-4.0
X5.35Y-2.8962
X5.4Y-3.01
X5.4201Y-2.9247
X5.4341Y-3.2091
X5.45Y-3.25
X5.52Y-4.1
X5.7002Y-4.1598
X5.775Y-3.0317
X5.8353Y-2.9818
X5.86Y-2.9215
X6.12Y-3.96
X6.22Y-2.5263
T3
X6.875Y-3.7478
X6.875Y-3.8069
X6.875Y-3.8659
X6.875Y-3.925
T4
X6.4Y-4.5
X6.45Y-4.5
X6.5Y-4.5
X6.55Y-4.275
X6.6Y-4.275
X6.65Y-4.275
T5
X4.65Y-2.64
X4.65Y-3.225
X4.78Y-2.765
X4.8469Y-3.225
X4.85Y-3.375
X4.975Y-4.875
X4.975Y-5.275
X4.975Y-5.4
X5.04Y-1.64
X5.04Y-2.04
X5.0469Y-3.375
X5.05Y-2.64
X5.12Y-2.3289
X5.12Y-2.4076
X5.16Y-1.64
X5.16Y-2.04
X5.18Y-2.765
X5.2998Y-1.8704
X5.2998Y-2.4704
X5.3689Y-1.71
X5.375Y-5.4
X5.3998Y-1.8704
X5.3998Y-2.4704
X5.4194Y-2.5696
X5.4194Y-2.8696
X5.4476Y-1.71
X5.4998Y-1.8704
X5.4998Y-2.4704
X5.5194Y-2.5696
X5.5194Y-2.8696
X5.5998Y-1.8704
X5.5998Y-2.4704
X5.6194Y-2.5696
X5.6194Y-2.8696
X5.6998Y-1.8704
X5.6998Y-2.4704
X5.7194Y-2.5696
X5.7194Y-2.8696
X5.7998Y-1.8704
X5.7998Y-2.4704
X5.8194Y-2.5696
X5.8194Y-2.8696
X5.8998Y-1.8704
X5.8998Y-2.4704
X5.9194Y-2.5696
X5.9194Y-2.8696
X5.9998Y-1.8704
X5.9998Y-2.4704
X6.0194Y-2.5696
X6.0194Y-2.8696
X6.0216Y-1.75
X6.0998Y-1.8704
X6.0998Y-2.4704
X6.1194Y-2.5696
X6.1194Y-2.8696
X6.1998Y-1.8704
X6.1998Y-2.4704
X6.2184Y-1.75
X6.34Y-1.8731
X6.34Y-2.07
X6.37Y-1.6813
X6.37Y-1.76
X6.38Y-2.3913
X6.38Y-2.47
X6.425Y-3.9
X6.425Y-4.3
X6.55Y-3.7
X6.55Y-4.1
T6
X4.8108Y-3.8047
X4.8108Y-3.9031
X4.8108Y-4.0016
X4.8108Y-4.1
X4.8108Y-4.1984
X4.8108Y-4.2969
X4.8108Y-4.3953
T7
X4.6472Y-3.3994
X4.6472Y-3.4994
X4.6472Y-3.5994
X4.6472Y-4.7494
X4.6472Y-4.8494
X4.6472Y-4.9494
X4.6496Y-2.141
X4.6496Y-2.241
X4.6496Y-2.341
X5.3Y-2.64
X5.3Y-2.74
X5.5996Y-1.666
X5.6996Y-1.666
X5.7996Y-1.666
X5.8996Y-1.666
X6.23Y-2.64
X6.23Y-2.74
X6.41Y-5.02
X6.41Y-5.12
X6.41Y-5.22
X6.41Y-5.32
X6.65Y-4.45
X6.65Y-4.55
X6.7Y-3.85
X6.7Y-3.95
X6.8496Y-2.141
X6.8496Y-2.241
X6.8496Y-2.341
X6.85Y-4.75
X6.85Y-4.85
X6.85Y-4.95
T8
X5.277Y-3.1006
X5.277Y-3.2006
X5.277Y-3.3006
X5.277Y-3.4006
X5.277Y-3.5006
X5.277Y-3.6006
X5.277Y-3.7006
X5.277Y-3.8006
X5.277Y-3.9006
X5.277Y-4.0006
X5.277Y-4.1006
X5.277Y-4.2006
X5.277Y-4.3006
X5.277Y-4.4006
X5.277Y-4.5006
X5.277Y-4.6006
X5.277Y-4.7006
X5.277Y-4.8006
X5.277Y-4.9006
X5.277Y-5.0006
X5.65Y-4.275
X5.75Y-4.275
X5.85Y-4.275
X5.977Y-3.1006
X5.977Y-3.2006
X5.977Y-3.3006
X5.977Y-3.4006
X5.977Y-3.5006
X5.977Y-3.6006
X5.977Y-3.7006
X5.977Y-3.8006
X5.977Y-3.9006
X5.977Y-4.0006
X5.977Y-4.1006
X5.977Y-4.2006
X5.977Y-4.3006
X5.977Y-4.4006
X5.977Y-4.5006
X5.977Y-4.6006
X5.977Y-4.7006
X5.977Y-4.8006
X5.977Y-4.9006
X5.977Y-5.0006
T9
X4.65Y-2.8858
X4.65Y-3.1142
X4.9453Y-2.9114
X4.9453Y-3.0886
T10
X4.8012Y-2.1025
X4.8012Y-2.386
X4.8062Y-4.7075
X4.8062Y-4.991
X5.6083Y-5.1935
X5.8917Y-5.1935
X6.6996Y-2.0993
X6.6996Y-2.3827
X6.7Y-4.7025
X6.7Y-4.986
T11
X4.6996Y-1.791
X4.7Y-5.3
X6.7996Y-1.791
X6.8Y-5.3
T2
G00X4.5867Y-1.9785
M15
G01X4.5433Y-1.9785
M16
G05
G00X4.5867Y-2.51
M15
G01X4.5433Y-2.51
M16
G05
G00X4.5917Y-4.5835
M15
G01X4.5483Y-4.5835
M16
G05
G00X4.5917Y-5.115
M15
G01X4.5483Y-5.115
M16
G05
G00X5.4843Y-5.4081
M15
G01X5.4843Y-5.4514
M16
G05
G00X6.0157Y-5.4081
M15
G01X6.0157Y-5.4514
M16
G05
G00X6.7138Y-3.29
M15
G01X6.7571Y-3.29
M16
G05
G00X6.7138Y-3.6302
M15
G01X6.7571Y-3.6302
M16
G05
G00X6.8843Y-3.29
M15
G01X6.9157Y-3.29
M16
G05
G00X6.8843Y-3.6302
M15
G01X6.9157Y-3.6302
M16
G05
G00X6.9142Y-1.9752
M15
G01X6.9575Y-1.9752
M16
G05
G00X6.9142Y-2.5067
M15
G01X6.9575Y-2.5067
M16
G05
G00X6.9146Y-4.5785
M15
G01X6.9579Y-4.5785
M16
G05
G00X6.9146Y-5.11
M15
G01X6.9579Y-5.11
M16
G05
T0
M30
