%TF.GenerationSoftware,KiCad,Pcbnew,7.0.2*%
%TF.CreationDate,2023-08-07T19:48:10+09:00*%
%TF.ProjectId,TurtlePico,54757274-6c65-4506-9963-6f2e6b696361,rev?*%
%TF.SameCoordinates,Original*%
%TF.FileFunction,Legend,Bot*%
%TF.FilePolarity,Positive*%
%FSLAX46Y46*%
G04 Gerber Fmt 4.6, Leading zero omitted, Abs format (unit mm)*
G04 Created by KiCad (PCBNEW 7.0.2) date 2023-08-07 19:48:10*
%MOMM*%
%LPD*%
G01*
G04 APERTURE LIST*
%ADD10C,0.300000*%
%ADD11C,0.150000*%
%ADD12C,0.120000*%
G04 APERTURE END LIST*
D10*
X176893810Y-80305238D02*
X175750953Y-80305238D01*
X176322382Y-82305238D02*
X176322382Y-80305238D01*
X174227143Y-80971904D02*
X174227143Y-82305238D01*
X175084286Y-80971904D02*
X175084286Y-82019523D01*
X175084286Y-82019523D02*
X174989048Y-82210000D01*
X174989048Y-82210000D02*
X174798572Y-82305238D01*
X174798572Y-82305238D02*
X174512857Y-82305238D01*
X174512857Y-82305238D02*
X174322381Y-82210000D01*
X174322381Y-82210000D02*
X174227143Y-82114761D01*
X173274762Y-82305238D02*
X173274762Y-80971904D01*
X173274762Y-81352857D02*
X173179524Y-81162380D01*
X173179524Y-81162380D02*
X173084286Y-81067142D01*
X173084286Y-81067142D02*
X172893810Y-80971904D01*
X172893810Y-80971904D02*
X172703333Y-80971904D01*
X172322381Y-80971904D02*
X171560477Y-80971904D01*
X172036667Y-80305238D02*
X172036667Y-82019523D01*
X172036667Y-82019523D02*
X171941429Y-82210000D01*
X171941429Y-82210000D02*
X171750953Y-82305238D01*
X171750953Y-82305238D02*
X171560477Y-82305238D01*
X170608096Y-82305238D02*
X170798572Y-82210000D01*
X170798572Y-82210000D02*
X170893810Y-82019523D01*
X170893810Y-82019523D02*
X170893810Y-80305238D01*
X169084286Y-82210000D02*
X169274762Y-82305238D01*
X169274762Y-82305238D02*
X169655715Y-82305238D01*
X169655715Y-82305238D02*
X169846191Y-82210000D01*
X169846191Y-82210000D02*
X169941429Y-82019523D01*
X169941429Y-82019523D02*
X169941429Y-81257619D01*
X169941429Y-81257619D02*
X169846191Y-81067142D01*
X169846191Y-81067142D02*
X169655715Y-80971904D01*
X169655715Y-80971904D02*
X169274762Y-80971904D01*
X169274762Y-80971904D02*
X169084286Y-81067142D01*
X169084286Y-81067142D02*
X168989048Y-81257619D01*
X168989048Y-81257619D02*
X168989048Y-81448095D01*
X168989048Y-81448095D02*
X169941429Y-81638571D01*
X166608095Y-82305238D02*
X166608095Y-80305238D01*
X166608095Y-80305238D02*
X165846190Y-80305238D01*
X165846190Y-80305238D02*
X165655714Y-80400476D01*
X165655714Y-80400476D02*
X165560476Y-80495714D01*
X165560476Y-80495714D02*
X165465238Y-80686190D01*
X165465238Y-80686190D02*
X165465238Y-80971904D01*
X165465238Y-80971904D02*
X165560476Y-81162380D01*
X165560476Y-81162380D02*
X165655714Y-81257619D01*
X165655714Y-81257619D02*
X165846190Y-81352857D01*
X165846190Y-81352857D02*
X166608095Y-81352857D01*
X164608095Y-82305238D02*
X164608095Y-80971904D01*
X164608095Y-80305238D02*
X164703333Y-80400476D01*
X164703333Y-80400476D02*
X164608095Y-80495714D01*
X164608095Y-80495714D02*
X164512857Y-80400476D01*
X164512857Y-80400476D02*
X164608095Y-80305238D01*
X164608095Y-80305238D02*
X164608095Y-80495714D01*
X162798571Y-82210000D02*
X162989047Y-82305238D01*
X162989047Y-82305238D02*
X163370000Y-82305238D01*
X163370000Y-82305238D02*
X163560476Y-82210000D01*
X163560476Y-82210000D02*
X163655714Y-82114761D01*
X163655714Y-82114761D02*
X163750952Y-81924285D01*
X163750952Y-81924285D02*
X163750952Y-81352857D01*
X163750952Y-81352857D02*
X163655714Y-81162380D01*
X163655714Y-81162380D02*
X163560476Y-81067142D01*
X163560476Y-81067142D02*
X163370000Y-80971904D01*
X163370000Y-80971904D02*
X162989047Y-80971904D01*
X162989047Y-80971904D02*
X162798571Y-81067142D01*
X161655714Y-82305238D02*
X161846190Y-82210000D01*
X161846190Y-82210000D02*
X161941428Y-82114761D01*
X161941428Y-82114761D02*
X162036666Y-81924285D01*
X162036666Y-81924285D02*
X162036666Y-81352857D01*
X162036666Y-81352857D02*
X161941428Y-81162380D01*
X161941428Y-81162380D02*
X161846190Y-81067142D01*
X161846190Y-81067142D02*
X161655714Y-80971904D01*
X161655714Y-80971904D02*
X161369999Y-80971904D01*
X161369999Y-80971904D02*
X161179523Y-81067142D01*
X161179523Y-81067142D02*
X161084285Y-81162380D01*
X161084285Y-81162380D02*
X160989047Y-81352857D01*
X160989047Y-81352857D02*
X160989047Y-81924285D01*
X160989047Y-81924285D02*
X161084285Y-82114761D01*
X161084285Y-82114761D02*
X161179523Y-82210000D01*
X161179523Y-82210000D02*
X161369999Y-82305238D01*
X161369999Y-82305238D02*
X161655714Y-82305238D01*
X158798570Y-80971904D02*
X158322380Y-82305238D01*
X158322380Y-82305238D02*
X157846189Y-80971904D01*
X156036665Y-82305238D02*
X157179522Y-82305238D01*
X156608094Y-82305238D02*
X156608094Y-80305238D01*
X156608094Y-80305238D02*
X156798570Y-80590952D01*
X156798570Y-80590952D02*
X156989046Y-80781428D01*
X156989046Y-80781428D02*
X157179522Y-80876666D01*
D11*
%TO.C,J19*%
X176292619Y-112474476D02*
X177006904Y-112474476D01*
X177006904Y-112474476D02*
X177149761Y-112426857D01*
X177149761Y-112426857D02*
X177245000Y-112331619D01*
X177245000Y-112331619D02*
X177292619Y-112188762D01*
X177292619Y-112188762D02*
X177292619Y-112093524D01*
X177292619Y-113474476D02*
X177292619Y-112903048D01*
X177292619Y-113188762D02*
X176292619Y-113188762D01*
X176292619Y-113188762D02*
X176435476Y-113093524D01*
X176435476Y-113093524D02*
X176530714Y-112998286D01*
X176530714Y-112998286D02*
X176578333Y-112903048D01*
X177292619Y-113950667D02*
X177292619Y-114141143D01*
X177292619Y-114141143D02*
X177245000Y-114236381D01*
X177245000Y-114236381D02*
X177197380Y-114284000D01*
X177197380Y-114284000D02*
X177054523Y-114379238D01*
X177054523Y-114379238D02*
X176864047Y-114426857D01*
X176864047Y-114426857D02*
X176483095Y-114426857D01*
X176483095Y-114426857D02*
X176387857Y-114379238D01*
X176387857Y-114379238D02*
X176340238Y-114331619D01*
X176340238Y-114331619D02*
X176292619Y-114236381D01*
X176292619Y-114236381D02*
X176292619Y-114045905D01*
X176292619Y-114045905D02*
X176340238Y-113950667D01*
X176340238Y-113950667D02*
X176387857Y-113903048D01*
X176387857Y-113903048D02*
X176483095Y-113855429D01*
X176483095Y-113855429D02*
X176721190Y-113855429D01*
X176721190Y-113855429D02*
X176816428Y-113903048D01*
X176816428Y-113903048D02*
X176864047Y-113950667D01*
X176864047Y-113950667D02*
X176911666Y-114045905D01*
X176911666Y-114045905D02*
X176911666Y-114236381D01*
X176911666Y-114236381D02*
X176864047Y-114331619D01*
X176864047Y-114331619D02*
X176816428Y-114379238D01*
X176816428Y-114379238D02*
X176721190Y-114426857D01*
X167467619Y-121801142D02*
X166991428Y-121467809D01*
X167467619Y-121229714D02*
X166467619Y-121229714D01*
X166467619Y-121229714D02*
X166467619Y-121610666D01*
X166467619Y-121610666D02*
X166515238Y-121705904D01*
X166515238Y-121705904D02*
X166562857Y-121753523D01*
X166562857Y-121753523D02*
X166658095Y-121801142D01*
X166658095Y-121801142D02*
X166800952Y-121801142D01*
X166800952Y-121801142D02*
X166896190Y-121753523D01*
X166896190Y-121753523D02*
X166943809Y-121705904D01*
X166943809Y-121705904D02*
X166991428Y-121610666D01*
X166991428Y-121610666D02*
X166991428Y-121229714D01*
X167467619Y-122801142D02*
X166991428Y-122467809D01*
X167467619Y-122229714D02*
X166467619Y-122229714D01*
X166467619Y-122229714D02*
X166467619Y-122610666D01*
X166467619Y-122610666D02*
X166515238Y-122705904D01*
X166515238Y-122705904D02*
X166562857Y-122753523D01*
X166562857Y-122753523D02*
X166658095Y-122801142D01*
X166658095Y-122801142D02*
X166800952Y-122801142D01*
X166800952Y-122801142D02*
X166896190Y-122753523D01*
X166896190Y-122753523D02*
X166943809Y-122705904D01*
X166943809Y-122705904D02*
X166991428Y-122610666D01*
X166991428Y-122610666D02*
X166991428Y-122229714D01*
X167562857Y-122991619D02*
X167562857Y-123753523D01*
X167467619Y-123991619D02*
X166467619Y-123991619D01*
X166467619Y-123991619D02*
X166467619Y-124372571D01*
X166467619Y-124372571D02*
X166515238Y-124467809D01*
X166515238Y-124467809D02*
X166562857Y-124515428D01*
X166562857Y-124515428D02*
X166658095Y-124563047D01*
X166658095Y-124563047D02*
X166800952Y-124563047D01*
X166800952Y-124563047D02*
X166896190Y-124515428D01*
X166896190Y-124515428D02*
X166943809Y-124467809D01*
X166943809Y-124467809D02*
X166991428Y-124372571D01*
X166991428Y-124372571D02*
X166991428Y-123991619D01*
X166467619Y-124896381D02*
X167467619Y-125134476D01*
X167467619Y-125134476D02*
X166753333Y-125324952D01*
X166753333Y-125324952D02*
X167467619Y-125515428D01*
X167467619Y-125515428D02*
X166467619Y-125753524D01*
X167761666Y-116263048D02*
X167761666Y-117024953D01*
X167802500Y-128372571D02*
X167802500Y-129515429D01*
X168373928Y-128944000D02*
X167231071Y-128944000D01*
%TO.C,U3*%
X156942619Y-70866095D02*
X157752142Y-70866095D01*
X157752142Y-70866095D02*
X157847380Y-70913714D01*
X157847380Y-70913714D02*
X157895000Y-70961333D01*
X157895000Y-70961333D02*
X157942619Y-71056571D01*
X157942619Y-71056571D02*
X157942619Y-71247047D01*
X157942619Y-71247047D02*
X157895000Y-71342285D01*
X157895000Y-71342285D02*
X157847380Y-71389904D01*
X157847380Y-71389904D02*
X157752142Y-71437523D01*
X157752142Y-71437523D02*
X156942619Y-71437523D01*
X156942619Y-71818476D02*
X156942619Y-72437523D01*
X156942619Y-72437523D02*
X157323571Y-72104190D01*
X157323571Y-72104190D02*
X157323571Y-72247047D01*
X157323571Y-72247047D02*
X157371190Y-72342285D01*
X157371190Y-72342285D02*
X157418809Y-72389904D01*
X157418809Y-72389904D02*
X157514047Y-72437523D01*
X157514047Y-72437523D02*
X157752142Y-72437523D01*
X157752142Y-72437523D02*
X157847380Y-72389904D01*
X157847380Y-72389904D02*
X157895000Y-72342285D01*
X157895000Y-72342285D02*
X157942619Y-72247047D01*
X157942619Y-72247047D02*
X157942619Y-71961333D01*
X157942619Y-71961333D02*
X157895000Y-71866095D01*
X157895000Y-71866095D02*
X157847380Y-71818476D01*
X132558619Y-62738762D02*
X132558619Y-63310190D01*
X133558619Y-63024476D02*
X132558619Y-63024476D01*
X133463380Y-64214952D02*
X133511000Y-64167333D01*
X133511000Y-64167333D02*
X133558619Y-64024476D01*
X133558619Y-64024476D02*
X133558619Y-63929238D01*
X133558619Y-63929238D02*
X133511000Y-63786381D01*
X133511000Y-63786381D02*
X133415761Y-63691143D01*
X133415761Y-63691143D02*
X133320523Y-63643524D01*
X133320523Y-63643524D02*
X133130047Y-63595905D01*
X133130047Y-63595905D02*
X132987190Y-63595905D01*
X132987190Y-63595905D02*
X132796714Y-63643524D01*
X132796714Y-63643524D02*
X132701476Y-63691143D01*
X132701476Y-63691143D02*
X132606238Y-63786381D01*
X132606238Y-63786381D02*
X132558619Y-63929238D01*
X132558619Y-63929238D02*
X132558619Y-64024476D01*
X132558619Y-64024476D02*
X132606238Y-64167333D01*
X132606238Y-64167333D02*
X132653857Y-64214952D01*
X132558619Y-64548286D02*
X132558619Y-65214952D01*
X132558619Y-65214952D02*
X133558619Y-64786381D01*
X132987190Y-65738762D02*
X132939571Y-65643524D01*
X132939571Y-65643524D02*
X132891952Y-65595905D01*
X132891952Y-65595905D02*
X132796714Y-65548286D01*
X132796714Y-65548286D02*
X132749095Y-65548286D01*
X132749095Y-65548286D02*
X132653857Y-65595905D01*
X132653857Y-65595905D02*
X132606238Y-65643524D01*
X132606238Y-65643524D02*
X132558619Y-65738762D01*
X132558619Y-65738762D02*
X132558619Y-65929238D01*
X132558619Y-65929238D02*
X132606238Y-66024476D01*
X132606238Y-66024476D02*
X132653857Y-66072095D01*
X132653857Y-66072095D02*
X132749095Y-66119714D01*
X132749095Y-66119714D02*
X132796714Y-66119714D01*
X132796714Y-66119714D02*
X132891952Y-66072095D01*
X132891952Y-66072095D02*
X132939571Y-66024476D01*
X132939571Y-66024476D02*
X132987190Y-65929238D01*
X132987190Y-65929238D02*
X132987190Y-65738762D01*
X132987190Y-65738762D02*
X133034809Y-65643524D01*
X133034809Y-65643524D02*
X133082428Y-65595905D01*
X133082428Y-65595905D02*
X133177666Y-65548286D01*
X133177666Y-65548286D02*
X133368142Y-65548286D01*
X133368142Y-65548286D02*
X133463380Y-65595905D01*
X133463380Y-65595905D02*
X133511000Y-65643524D01*
X133511000Y-65643524D02*
X133558619Y-65738762D01*
X133558619Y-65738762D02*
X133558619Y-65929238D01*
X133558619Y-65929238D02*
X133511000Y-66024476D01*
X133511000Y-66024476D02*
X133463380Y-66072095D01*
X133463380Y-66072095D02*
X133368142Y-66119714D01*
X133368142Y-66119714D02*
X133177666Y-66119714D01*
X133177666Y-66119714D02*
X133082428Y-66072095D01*
X133082428Y-66072095D02*
X133034809Y-66024476D01*
X133034809Y-66024476D02*
X132987190Y-65929238D01*
X133558619Y-66548286D02*
X132558619Y-66548286D01*
X133034809Y-66548286D02*
X133034809Y-67119714D01*
X133558619Y-67119714D02*
X132558619Y-67119714D01*
X132558619Y-68024476D02*
X132558619Y-67834000D01*
X132558619Y-67834000D02*
X132606238Y-67738762D01*
X132606238Y-67738762D02*
X132653857Y-67691143D01*
X132653857Y-67691143D02*
X132796714Y-67595905D01*
X132796714Y-67595905D02*
X132987190Y-67548286D01*
X132987190Y-67548286D02*
X133368142Y-67548286D01*
X133368142Y-67548286D02*
X133463380Y-67595905D01*
X133463380Y-67595905D02*
X133511000Y-67643524D01*
X133511000Y-67643524D02*
X133558619Y-67738762D01*
X133558619Y-67738762D02*
X133558619Y-67929238D01*
X133558619Y-67929238D02*
X133511000Y-68024476D01*
X133511000Y-68024476D02*
X133463380Y-68072095D01*
X133463380Y-68072095D02*
X133368142Y-68119714D01*
X133368142Y-68119714D02*
X133130047Y-68119714D01*
X133130047Y-68119714D02*
X133034809Y-68072095D01*
X133034809Y-68072095D02*
X132987190Y-68024476D01*
X132987190Y-68024476D02*
X132939571Y-67929238D01*
X132939571Y-67929238D02*
X132939571Y-67738762D01*
X132939571Y-67738762D02*
X132987190Y-67643524D01*
X132987190Y-67643524D02*
X133034809Y-67595905D01*
X133034809Y-67595905D02*
X133130047Y-67548286D01*
X132558619Y-69024476D02*
X132558619Y-68548286D01*
X132558619Y-68548286D02*
X133034809Y-68500667D01*
X133034809Y-68500667D02*
X132987190Y-68548286D01*
X132987190Y-68548286D02*
X132939571Y-68643524D01*
X132939571Y-68643524D02*
X132939571Y-68881619D01*
X132939571Y-68881619D02*
X132987190Y-68976857D01*
X132987190Y-68976857D02*
X133034809Y-69024476D01*
X133034809Y-69024476D02*
X133130047Y-69072095D01*
X133130047Y-69072095D02*
X133368142Y-69072095D01*
X133368142Y-69072095D02*
X133463380Y-69024476D01*
X133463380Y-69024476D02*
X133511000Y-68976857D01*
X133511000Y-68976857D02*
X133558619Y-68881619D01*
X133558619Y-68881619D02*
X133558619Y-68643524D01*
X133558619Y-68643524D02*
X133511000Y-68548286D01*
X133511000Y-68548286D02*
X133463380Y-68500667D01*
X132558619Y-69405429D02*
X132558619Y-70024476D01*
X132558619Y-70024476D02*
X132939571Y-69691143D01*
X132939571Y-69691143D02*
X132939571Y-69834000D01*
X132939571Y-69834000D02*
X132987190Y-69929238D01*
X132987190Y-69929238D02*
X133034809Y-69976857D01*
X133034809Y-69976857D02*
X133130047Y-70024476D01*
X133130047Y-70024476D02*
X133368142Y-70024476D01*
X133368142Y-70024476D02*
X133463380Y-69976857D01*
X133463380Y-69976857D02*
X133511000Y-69929238D01*
X133511000Y-69929238D02*
X133558619Y-69834000D01*
X133558619Y-69834000D02*
X133558619Y-69548286D01*
X133558619Y-69548286D02*
X133511000Y-69453048D01*
X133511000Y-69453048D02*
X133463380Y-69405429D01*
X133034809Y-70786381D02*
X133034809Y-70453048D01*
X133558619Y-70453048D02*
X132558619Y-70453048D01*
X132558619Y-70453048D02*
X132558619Y-70929238D01*
X132558619Y-71167334D02*
X132558619Y-71738762D01*
X133558619Y-71453048D02*
X132558619Y-71453048D01*
X132606238Y-72595905D02*
X132558619Y-72500667D01*
X132558619Y-72500667D02*
X132558619Y-72357810D01*
X132558619Y-72357810D02*
X132606238Y-72214953D01*
X132606238Y-72214953D02*
X132701476Y-72119715D01*
X132701476Y-72119715D02*
X132796714Y-72072096D01*
X132796714Y-72072096D02*
X132987190Y-72024477D01*
X132987190Y-72024477D02*
X133130047Y-72024477D01*
X133130047Y-72024477D02*
X133320523Y-72072096D01*
X133320523Y-72072096D02*
X133415761Y-72119715D01*
X133415761Y-72119715D02*
X133511000Y-72214953D01*
X133511000Y-72214953D02*
X133558619Y-72357810D01*
X133558619Y-72357810D02*
X133558619Y-72453048D01*
X133558619Y-72453048D02*
X133511000Y-72595905D01*
X133511000Y-72595905D02*
X133463380Y-72643524D01*
X133463380Y-72643524D02*
X133130047Y-72643524D01*
X133130047Y-72643524D02*
X133130047Y-72453048D01*
X133511000Y-73119715D02*
X133558619Y-73119715D01*
X133558619Y-73119715D02*
X133653857Y-73072096D01*
X133653857Y-73072096D02*
X133701476Y-73024477D01*
X133034809Y-73548286D02*
X133034809Y-73881619D01*
X133558619Y-74024476D02*
X133558619Y-73548286D01*
X133558619Y-73548286D02*
X132558619Y-73548286D01*
X132558619Y-73548286D02*
X132558619Y-74024476D01*
X133558619Y-74929238D02*
X133558619Y-74453048D01*
X133558619Y-74453048D02*
X132558619Y-74453048D01*
%TO.C,Q2*%
X162020238Y-111682857D02*
X162115476Y-111635238D01*
X162115476Y-111635238D02*
X162210714Y-111540000D01*
X162210714Y-111540000D02*
X162353571Y-111397142D01*
X162353571Y-111397142D02*
X162448809Y-111349523D01*
X162448809Y-111349523D02*
X162544047Y-111349523D01*
X162496428Y-111587619D02*
X162591666Y-111540000D01*
X162591666Y-111540000D02*
X162686904Y-111444761D01*
X162686904Y-111444761D02*
X162734523Y-111254285D01*
X162734523Y-111254285D02*
X162734523Y-110920952D01*
X162734523Y-110920952D02*
X162686904Y-110730476D01*
X162686904Y-110730476D02*
X162591666Y-110635238D01*
X162591666Y-110635238D02*
X162496428Y-110587619D01*
X162496428Y-110587619D02*
X162305952Y-110587619D01*
X162305952Y-110587619D02*
X162210714Y-110635238D01*
X162210714Y-110635238D02*
X162115476Y-110730476D01*
X162115476Y-110730476D02*
X162067857Y-110920952D01*
X162067857Y-110920952D02*
X162067857Y-111254285D01*
X162067857Y-111254285D02*
X162115476Y-111444761D01*
X162115476Y-111444761D02*
X162210714Y-111540000D01*
X162210714Y-111540000D02*
X162305952Y-111587619D01*
X162305952Y-111587619D02*
X162496428Y-111587619D01*
X161686904Y-110682857D02*
X161639285Y-110635238D01*
X161639285Y-110635238D02*
X161544047Y-110587619D01*
X161544047Y-110587619D02*
X161305952Y-110587619D01*
X161305952Y-110587619D02*
X161210714Y-110635238D01*
X161210714Y-110635238D02*
X161163095Y-110682857D01*
X161163095Y-110682857D02*
X161115476Y-110778095D01*
X161115476Y-110778095D02*
X161115476Y-110873333D01*
X161115476Y-110873333D02*
X161163095Y-111016190D01*
X161163095Y-111016190D02*
X161734523Y-111587619D01*
X161734523Y-111587619D02*
X161115476Y-111587619D01*
X166996666Y-116647857D02*
X166949047Y-116600238D01*
X166949047Y-116600238D02*
X166853809Y-116552619D01*
X166853809Y-116552619D02*
X166615714Y-116552619D01*
X166615714Y-116552619D02*
X166520476Y-116600238D01*
X166520476Y-116600238D02*
X166472857Y-116647857D01*
X166472857Y-116647857D02*
X166425238Y-116743095D01*
X166425238Y-116743095D02*
X166425238Y-116838333D01*
X166425238Y-116838333D02*
X166472857Y-116981190D01*
X166472857Y-116981190D02*
X167044285Y-117552619D01*
X167044285Y-117552619D02*
X166425238Y-117552619D01*
X166044285Y-117505000D02*
X165901428Y-117552619D01*
X165901428Y-117552619D02*
X165663333Y-117552619D01*
X165663333Y-117552619D02*
X165568095Y-117505000D01*
X165568095Y-117505000D02*
X165520476Y-117457380D01*
X165520476Y-117457380D02*
X165472857Y-117362142D01*
X165472857Y-117362142D02*
X165472857Y-117266904D01*
X165472857Y-117266904D02*
X165520476Y-117171666D01*
X165520476Y-117171666D02*
X165568095Y-117124047D01*
X165568095Y-117124047D02*
X165663333Y-117076428D01*
X165663333Y-117076428D02*
X165853809Y-117028809D01*
X165853809Y-117028809D02*
X165949047Y-116981190D01*
X165949047Y-116981190D02*
X165996666Y-116933571D01*
X165996666Y-116933571D02*
X166044285Y-116838333D01*
X166044285Y-116838333D02*
X166044285Y-116743095D01*
X166044285Y-116743095D02*
X165996666Y-116647857D01*
X165996666Y-116647857D02*
X165949047Y-116600238D01*
X165949047Y-116600238D02*
X165853809Y-116552619D01*
X165853809Y-116552619D02*
X165615714Y-116552619D01*
X165615714Y-116552619D02*
X165472857Y-116600238D01*
X164472857Y-117457380D02*
X164520476Y-117505000D01*
X164520476Y-117505000D02*
X164663333Y-117552619D01*
X164663333Y-117552619D02*
X164758571Y-117552619D01*
X164758571Y-117552619D02*
X164901428Y-117505000D01*
X164901428Y-117505000D02*
X164996666Y-117409761D01*
X164996666Y-117409761D02*
X165044285Y-117314523D01*
X165044285Y-117314523D02*
X165091904Y-117124047D01*
X165091904Y-117124047D02*
X165091904Y-116981190D01*
X165091904Y-116981190D02*
X165044285Y-116790714D01*
X165044285Y-116790714D02*
X164996666Y-116695476D01*
X164996666Y-116695476D02*
X164901428Y-116600238D01*
X164901428Y-116600238D02*
X164758571Y-116552619D01*
X164758571Y-116552619D02*
X164663333Y-116552619D01*
X164663333Y-116552619D02*
X164520476Y-116600238D01*
X164520476Y-116600238D02*
X164472857Y-116647857D01*
X163520476Y-117552619D02*
X164091904Y-117552619D01*
X163806190Y-117552619D02*
X163806190Y-116552619D01*
X163806190Y-116552619D02*
X163901428Y-116695476D01*
X163901428Y-116695476D02*
X163996666Y-116790714D01*
X163996666Y-116790714D02*
X164091904Y-116838333D01*
X162949047Y-116981190D02*
X163044285Y-116933571D01*
X163044285Y-116933571D02*
X163091904Y-116885952D01*
X163091904Y-116885952D02*
X163139523Y-116790714D01*
X163139523Y-116790714D02*
X163139523Y-116743095D01*
X163139523Y-116743095D02*
X163091904Y-116647857D01*
X163091904Y-116647857D02*
X163044285Y-116600238D01*
X163044285Y-116600238D02*
X162949047Y-116552619D01*
X162949047Y-116552619D02*
X162758571Y-116552619D01*
X162758571Y-116552619D02*
X162663333Y-116600238D01*
X162663333Y-116600238D02*
X162615714Y-116647857D01*
X162615714Y-116647857D02*
X162568095Y-116743095D01*
X162568095Y-116743095D02*
X162568095Y-116790714D01*
X162568095Y-116790714D02*
X162615714Y-116885952D01*
X162615714Y-116885952D02*
X162663333Y-116933571D01*
X162663333Y-116933571D02*
X162758571Y-116981190D01*
X162758571Y-116981190D02*
X162949047Y-116981190D01*
X162949047Y-116981190D02*
X163044285Y-117028809D01*
X163044285Y-117028809D02*
X163091904Y-117076428D01*
X163091904Y-117076428D02*
X163139523Y-117171666D01*
X163139523Y-117171666D02*
X163139523Y-117362142D01*
X163139523Y-117362142D02*
X163091904Y-117457380D01*
X163091904Y-117457380D02*
X163044285Y-117505000D01*
X163044285Y-117505000D02*
X162949047Y-117552619D01*
X162949047Y-117552619D02*
X162758571Y-117552619D01*
X162758571Y-117552619D02*
X162663333Y-117505000D01*
X162663333Y-117505000D02*
X162615714Y-117457380D01*
X162615714Y-117457380D02*
X162568095Y-117362142D01*
X162568095Y-117362142D02*
X162568095Y-117171666D01*
X162568095Y-117171666D02*
X162615714Y-117076428D01*
X162615714Y-117076428D02*
X162663333Y-117028809D01*
X162663333Y-117028809D02*
X162758571Y-116981190D01*
X161615714Y-117552619D02*
X162187142Y-117552619D01*
X161901428Y-117552619D02*
X161901428Y-116552619D01*
X161901428Y-116552619D02*
X161996666Y-116695476D01*
X161996666Y-116695476D02*
X162091904Y-116790714D01*
X162091904Y-116790714D02*
X162187142Y-116838333D01*
X160710952Y-116552619D02*
X161187142Y-116552619D01*
X161187142Y-116552619D02*
X161234761Y-117028809D01*
X161234761Y-117028809D02*
X161187142Y-116981190D01*
X161187142Y-116981190D02*
X161091904Y-116933571D01*
X161091904Y-116933571D02*
X160853809Y-116933571D01*
X160853809Y-116933571D02*
X160758571Y-116981190D01*
X160758571Y-116981190D02*
X160710952Y-117028809D01*
X160710952Y-117028809D02*
X160663333Y-117124047D01*
X160663333Y-117124047D02*
X160663333Y-117362142D01*
X160663333Y-117362142D02*
X160710952Y-117457380D01*
X160710952Y-117457380D02*
X160758571Y-117505000D01*
X160758571Y-117505000D02*
X160853809Y-117552619D01*
X160853809Y-117552619D02*
X161091904Y-117552619D01*
X161091904Y-117552619D02*
X161187142Y-117505000D01*
X161187142Y-117505000D02*
X161234761Y-117457380D01*
%TO.C,J20*%
X122810619Y-64214476D02*
X123524904Y-64214476D01*
X123524904Y-64214476D02*
X123667761Y-64166857D01*
X123667761Y-64166857D02*
X123763000Y-64071619D01*
X123763000Y-64071619D02*
X123810619Y-63928762D01*
X123810619Y-63928762D02*
X123810619Y-63833524D01*
X122905857Y-64643048D02*
X122858238Y-64690667D01*
X122858238Y-64690667D02*
X122810619Y-64785905D01*
X122810619Y-64785905D02*
X122810619Y-65024000D01*
X122810619Y-65024000D02*
X122858238Y-65119238D01*
X122858238Y-65119238D02*
X122905857Y-65166857D01*
X122905857Y-65166857D02*
X123001095Y-65214476D01*
X123001095Y-65214476D02*
X123096333Y-65214476D01*
X123096333Y-65214476D02*
X123239190Y-65166857D01*
X123239190Y-65166857D02*
X123810619Y-64595429D01*
X123810619Y-64595429D02*
X123810619Y-65214476D01*
X122810619Y-65833524D02*
X122810619Y-65928762D01*
X122810619Y-65928762D02*
X122858238Y-66024000D01*
X122858238Y-66024000D02*
X122905857Y-66071619D01*
X122905857Y-66071619D02*
X123001095Y-66119238D01*
X123001095Y-66119238D02*
X123191571Y-66166857D01*
X123191571Y-66166857D02*
X123429666Y-66166857D01*
X123429666Y-66166857D02*
X123620142Y-66119238D01*
X123620142Y-66119238D02*
X123715380Y-66071619D01*
X123715380Y-66071619D02*
X123763000Y-66024000D01*
X123763000Y-66024000D02*
X123810619Y-65928762D01*
X123810619Y-65928762D02*
X123810619Y-65833524D01*
X123810619Y-65833524D02*
X123763000Y-65738286D01*
X123763000Y-65738286D02*
X123715380Y-65690667D01*
X123715380Y-65690667D02*
X123620142Y-65643048D01*
X123620142Y-65643048D02*
X123429666Y-65595429D01*
X123429666Y-65595429D02*
X123191571Y-65595429D01*
X123191571Y-65595429D02*
X123001095Y-65643048D01*
X123001095Y-65643048D02*
X122905857Y-65690667D01*
X122905857Y-65690667D02*
X122858238Y-65738286D01*
X122858238Y-65738286D02*
X122810619Y-65833524D01*
X124937809Y-55289714D02*
X124937809Y-54956381D01*
X125461619Y-54956381D02*
X124461619Y-54956381D01*
X124461619Y-54956381D02*
X124461619Y-55432571D01*
X125461619Y-56289714D02*
X125461619Y-55813524D01*
X125461619Y-55813524D02*
X124461619Y-55813524D01*
X125556857Y-56384953D02*
X125556857Y-57146857D01*
X125461619Y-57384953D02*
X124461619Y-57384953D01*
X124461619Y-57384953D02*
X124461619Y-57765905D01*
X124461619Y-57765905D02*
X124509238Y-57861143D01*
X124509238Y-57861143D02*
X124556857Y-57908762D01*
X124556857Y-57908762D02*
X124652095Y-57956381D01*
X124652095Y-57956381D02*
X124794952Y-57956381D01*
X124794952Y-57956381D02*
X124890190Y-57908762D01*
X124890190Y-57908762D02*
X124937809Y-57861143D01*
X124937809Y-57861143D02*
X124985428Y-57765905D01*
X124985428Y-57765905D02*
X124985428Y-57384953D01*
X124461619Y-58289715D02*
X125461619Y-58527810D01*
X125461619Y-58527810D02*
X124747333Y-58718286D01*
X124747333Y-58718286D02*
X125461619Y-58908762D01*
X125461619Y-58908762D02*
X124461619Y-59146858D01*
X124532666Y-63023048D02*
X124532666Y-63784953D01*
X124573500Y-50532571D02*
X124573500Y-51675429D01*
X125144928Y-51104000D02*
X124002071Y-51104000D01*
%TO.C,R2*%
X164292619Y-102068333D02*
X163816428Y-101735000D01*
X164292619Y-101496905D02*
X163292619Y-101496905D01*
X163292619Y-101496905D02*
X163292619Y-101877857D01*
X163292619Y-101877857D02*
X163340238Y-101973095D01*
X163340238Y-101973095D02*
X163387857Y-102020714D01*
X163387857Y-102020714D02*
X163483095Y-102068333D01*
X163483095Y-102068333D02*
X163625952Y-102068333D01*
X163625952Y-102068333D02*
X163721190Y-102020714D01*
X163721190Y-102020714D02*
X163768809Y-101973095D01*
X163768809Y-101973095D02*
X163816428Y-101877857D01*
X163816428Y-101877857D02*
X163816428Y-101496905D01*
X163387857Y-102449286D02*
X163340238Y-102496905D01*
X163340238Y-102496905D02*
X163292619Y-102592143D01*
X163292619Y-102592143D02*
X163292619Y-102830238D01*
X163292619Y-102830238D02*
X163340238Y-102925476D01*
X163340238Y-102925476D02*
X163387857Y-102973095D01*
X163387857Y-102973095D02*
X163483095Y-103020714D01*
X163483095Y-103020714D02*
X163578333Y-103020714D01*
X163578333Y-103020714D02*
X163721190Y-102973095D01*
X163721190Y-102973095D02*
X164292619Y-102401667D01*
X164292619Y-102401667D02*
X164292619Y-103020714D01*
X164292619Y-105449761D02*
X164292619Y-104878333D01*
X164292619Y-105164047D02*
X163292619Y-105164047D01*
X163292619Y-105164047D02*
X163435476Y-105068809D01*
X163435476Y-105068809D02*
X163530714Y-104973571D01*
X163530714Y-104973571D02*
X163578333Y-104878333D01*
X163292619Y-106068809D02*
X163292619Y-106164047D01*
X163292619Y-106164047D02*
X163340238Y-106259285D01*
X163340238Y-106259285D02*
X163387857Y-106306904D01*
X163387857Y-106306904D02*
X163483095Y-106354523D01*
X163483095Y-106354523D02*
X163673571Y-106402142D01*
X163673571Y-106402142D02*
X163911666Y-106402142D01*
X163911666Y-106402142D02*
X164102142Y-106354523D01*
X164102142Y-106354523D02*
X164197380Y-106306904D01*
X164197380Y-106306904D02*
X164245000Y-106259285D01*
X164245000Y-106259285D02*
X164292619Y-106164047D01*
X164292619Y-106164047D02*
X164292619Y-106068809D01*
X164292619Y-106068809D02*
X164245000Y-105973571D01*
X164245000Y-105973571D02*
X164197380Y-105925952D01*
X164197380Y-105925952D02*
X164102142Y-105878333D01*
X164102142Y-105878333D02*
X163911666Y-105830714D01*
X163911666Y-105830714D02*
X163673571Y-105830714D01*
X163673571Y-105830714D02*
X163483095Y-105878333D01*
X163483095Y-105878333D02*
X163387857Y-105925952D01*
X163387857Y-105925952D02*
X163340238Y-105973571D01*
X163340238Y-105973571D02*
X163292619Y-106068809D01*
X164292619Y-106830714D02*
X163292619Y-106830714D01*
X163911666Y-106925952D02*
X164292619Y-107211666D01*
X163625952Y-107211666D02*
X164006904Y-106830714D01*
%TO.C,R1*%
X167467619Y-96988333D02*
X166991428Y-96655000D01*
X167467619Y-96416905D02*
X166467619Y-96416905D01*
X166467619Y-96416905D02*
X166467619Y-96797857D01*
X166467619Y-96797857D02*
X166515238Y-96893095D01*
X166515238Y-96893095D02*
X166562857Y-96940714D01*
X166562857Y-96940714D02*
X166658095Y-96988333D01*
X166658095Y-96988333D02*
X166800952Y-96988333D01*
X166800952Y-96988333D02*
X166896190Y-96940714D01*
X166896190Y-96940714D02*
X166943809Y-96893095D01*
X166943809Y-96893095D02*
X166991428Y-96797857D01*
X166991428Y-96797857D02*
X166991428Y-96416905D01*
X167467619Y-97940714D02*
X167467619Y-97369286D01*
X167467619Y-97655000D02*
X166467619Y-97655000D01*
X166467619Y-97655000D02*
X166610476Y-97559762D01*
X166610476Y-97559762D02*
X166705714Y-97464524D01*
X166705714Y-97464524D02*
X166753333Y-97369286D01*
X167467619Y-100369761D02*
X167467619Y-99798333D01*
X167467619Y-100084047D02*
X166467619Y-100084047D01*
X166467619Y-100084047D02*
X166610476Y-99988809D01*
X166610476Y-99988809D02*
X166705714Y-99893571D01*
X166705714Y-99893571D02*
X166753333Y-99798333D01*
X166467619Y-100988809D02*
X166467619Y-101084047D01*
X166467619Y-101084047D02*
X166515238Y-101179285D01*
X166515238Y-101179285D02*
X166562857Y-101226904D01*
X166562857Y-101226904D02*
X166658095Y-101274523D01*
X166658095Y-101274523D02*
X166848571Y-101322142D01*
X166848571Y-101322142D02*
X167086666Y-101322142D01*
X167086666Y-101322142D02*
X167277142Y-101274523D01*
X167277142Y-101274523D02*
X167372380Y-101226904D01*
X167372380Y-101226904D02*
X167420000Y-101179285D01*
X167420000Y-101179285D02*
X167467619Y-101084047D01*
X167467619Y-101084047D02*
X167467619Y-100988809D01*
X167467619Y-100988809D02*
X167420000Y-100893571D01*
X167420000Y-100893571D02*
X167372380Y-100845952D01*
X167372380Y-100845952D02*
X167277142Y-100798333D01*
X167277142Y-100798333D02*
X167086666Y-100750714D01*
X167086666Y-100750714D02*
X166848571Y-100750714D01*
X166848571Y-100750714D02*
X166658095Y-100798333D01*
X166658095Y-100798333D02*
X166562857Y-100845952D01*
X166562857Y-100845952D02*
X166515238Y-100893571D01*
X166515238Y-100893571D02*
X166467619Y-100988809D01*
X167467619Y-101750714D02*
X166467619Y-101750714D01*
X167086666Y-101845952D02*
X167467619Y-102131666D01*
X166800952Y-102131666D02*
X167181904Y-101750714D01*
%TO.C,J4*%
X124176619Y-102790666D02*
X124890904Y-102790666D01*
X124890904Y-102790666D02*
X125033761Y-102743047D01*
X125033761Y-102743047D02*
X125129000Y-102647809D01*
X125129000Y-102647809D02*
X125176619Y-102504952D01*
X125176619Y-102504952D02*
X125176619Y-102409714D01*
X124509952Y-103695428D02*
X125176619Y-103695428D01*
X124129000Y-103457333D02*
X124843285Y-103219238D01*
X124843285Y-103219238D02*
X124843285Y-103838285D01*
X124176619Y-105608619D02*
X124176619Y-105799095D01*
X124176619Y-105799095D02*
X124224238Y-105894333D01*
X124224238Y-105894333D02*
X124319476Y-105989571D01*
X124319476Y-105989571D02*
X124509952Y-106037190D01*
X124509952Y-106037190D02*
X124843285Y-106037190D01*
X124843285Y-106037190D02*
X125033761Y-105989571D01*
X125033761Y-105989571D02*
X125129000Y-105894333D01*
X125129000Y-105894333D02*
X125176619Y-105799095D01*
X125176619Y-105799095D02*
X125176619Y-105608619D01*
X125176619Y-105608619D02*
X125129000Y-105513381D01*
X125129000Y-105513381D02*
X125033761Y-105418143D01*
X125033761Y-105418143D02*
X124843285Y-105370524D01*
X124843285Y-105370524D02*
X124509952Y-105370524D01*
X124509952Y-105370524D02*
X124319476Y-105418143D01*
X124319476Y-105418143D02*
X124224238Y-105513381D01*
X124224238Y-105513381D02*
X124176619Y-105608619D01*
X125176619Y-106941952D02*
X125176619Y-106465762D01*
X125176619Y-106465762D02*
X124176619Y-106465762D01*
X124652809Y-107275286D02*
X124652809Y-107608619D01*
X125176619Y-107751476D02*
X125176619Y-107275286D01*
X125176619Y-107275286D02*
X124176619Y-107275286D01*
X124176619Y-107275286D02*
X124176619Y-107751476D01*
X125176619Y-108180048D02*
X124176619Y-108180048D01*
X124176619Y-108180048D02*
X124176619Y-108418143D01*
X124176619Y-108418143D02*
X124224238Y-108561000D01*
X124224238Y-108561000D02*
X124319476Y-108656238D01*
X124319476Y-108656238D02*
X124414714Y-108703857D01*
X124414714Y-108703857D02*
X124605190Y-108751476D01*
X124605190Y-108751476D02*
X124748047Y-108751476D01*
X124748047Y-108751476D02*
X124938523Y-108703857D01*
X124938523Y-108703857D02*
X125033761Y-108656238D01*
X125033761Y-108656238D02*
X125129000Y-108561000D01*
X125129000Y-108561000D02*
X125176619Y-108418143D01*
X125176619Y-108418143D02*
X125176619Y-108180048D01*
%TO.C,J21*%
X114636619Y-131632476D02*
X115350904Y-131632476D01*
X115350904Y-131632476D02*
X115493761Y-131584857D01*
X115493761Y-131584857D02*
X115589000Y-131489619D01*
X115589000Y-131489619D02*
X115636619Y-131346762D01*
X115636619Y-131346762D02*
X115636619Y-131251524D01*
X114731857Y-132061048D02*
X114684238Y-132108667D01*
X114684238Y-132108667D02*
X114636619Y-132203905D01*
X114636619Y-132203905D02*
X114636619Y-132442000D01*
X114636619Y-132442000D02*
X114684238Y-132537238D01*
X114684238Y-132537238D02*
X114731857Y-132584857D01*
X114731857Y-132584857D02*
X114827095Y-132632476D01*
X114827095Y-132632476D02*
X114922333Y-132632476D01*
X114922333Y-132632476D02*
X115065190Y-132584857D01*
X115065190Y-132584857D02*
X115636619Y-132013429D01*
X115636619Y-132013429D02*
X115636619Y-132632476D01*
X115636619Y-133584857D02*
X115636619Y-133013429D01*
X115636619Y-133299143D02*
X114636619Y-133299143D01*
X114636619Y-133299143D02*
X114779476Y-133203905D01*
X114779476Y-133203905D02*
X114874714Y-133108667D01*
X114874714Y-133108667D02*
X114922333Y-133013429D01*
X125430619Y-121388380D02*
X124954428Y-121055047D01*
X125430619Y-120816952D02*
X124430619Y-120816952D01*
X124430619Y-120816952D02*
X124430619Y-121197904D01*
X124430619Y-121197904D02*
X124478238Y-121293142D01*
X124478238Y-121293142D02*
X124525857Y-121340761D01*
X124525857Y-121340761D02*
X124621095Y-121388380D01*
X124621095Y-121388380D02*
X124763952Y-121388380D01*
X124763952Y-121388380D02*
X124859190Y-121340761D01*
X124859190Y-121340761D02*
X124906809Y-121293142D01*
X124906809Y-121293142D02*
X124954428Y-121197904D01*
X124954428Y-121197904D02*
X124954428Y-120816952D01*
X125430619Y-122293142D02*
X125430619Y-121816952D01*
X125430619Y-121816952D02*
X124430619Y-121816952D01*
X125525857Y-122388381D02*
X125525857Y-123150285D01*
X125430619Y-123388381D02*
X124430619Y-123388381D01*
X124430619Y-123388381D02*
X124430619Y-123769333D01*
X124430619Y-123769333D02*
X124478238Y-123864571D01*
X124478238Y-123864571D02*
X124525857Y-123912190D01*
X124525857Y-123912190D02*
X124621095Y-123959809D01*
X124621095Y-123959809D02*
X124763952Y-123959809D01*
X124763952Y-123959809D02*
X124859190Y-123912190D01*
X124859190Y-123912190D02*
X124906809Y-123864571D01*
X124906809Y-123864571D02*
X124954428Y-123769333D01*
X124954428Y-123769333D02*
X124954428Y-123388381D01*
X124430619Y-124293143D02*
X125430619Y-124531238D01*
X125430619Y-124531238D02*
X124716333Y-124721714D01*
X124716333Y-124721714D02*
X125430619Y-124912190D01*
X125430619Y-124912190D02*
X124430619Y-125150286D01*
X124659666Y-129190048D02*
X124659666Y-129951953D01*
X124700500Y-116699571D02*
X124700500Y-117842429D01*
X125271928Y-117271000D02*
X124129071Y-117271000D01*
%TO.C,J18*%
X176617619Y-65382476D02*
X177331904Y-65382476D01*
X177331904Y-65382476D02*
X177474761Y-65334857D01*
X177474761Y-65334857D02*
X177570000Y-65239619D01*
X177570000Y-65239619D02*
X177617619Y-65096762D01*
X177617619Y-65096762D02*
X177617619Y-65001524D01*
X177617619Y-66382476D02*
X177617619Y-65811048D01*
X177617619Y-66096762D02*
X176617619Y-66096762D01*
X176617619Y-66096762D02*
X176760476Y-66001524D01*
X176760476Y-66001524D02*
X176855714Y-65906286D01*
X176855714Y-65906286D02*
X176903333Y-65811048D01*
X177046190Y-66953905D02*
X176998571Y-66858667D01*
X176998571Y-66858667D02*
X176950952Y-66811048D01*
X176950952Y-66811048D02*
X176855714Y-66763429D01*
X176855714Y-66763429D02*
X176808095Y-66763429D01*
X176808095Y-66763429D02*
X176712857Y-66811048D01*
X176712857Y-66811048D02*
X176665238Y-66858667D01*
X176665238Y-66858667D02*
X176617619Y-66953905D01*
X176617619Y-66953905D02*
X176617619Y-67144381D01*
X176617619Y-67144381D02*
X176665238Y-67239619D01*
X176665238Y-67239619D02*
X176712857Y-67287238D01*
X176712857Y-67287238D02*
X176808095Y-67334857D01*
X176808095Y-67334857D02*
X176855714Y-67334857D01*
X176855714Y-67334857D02*
X176950952Y-67287238D01*
X176950952Y-67287238D02*
X176998571Y-67239619D01*
X176998571Y-67239619D02*
X177046190Y-67144381D01*
X177046190Y-67144381D02*
X177046190Y-66953905D01*
X177046190Y-66953905D02*
X177093809Y-66858667D01*
X177093809Y-66858667D02*
X177141428Y-66811048D01*
X177141428Y-66811048D02*
X177236666Y-66763429D01*
X177236666Y-66763429D02*
X177427142Y-66763429D01*
X177427142Y-66763429D02*
X177522380Y-66811048D01*
X177522380Y-66811048D02*
X177570000Y-66858667D01*
X177570000Y-66858667D02*
X177617619Y-66953905D01*
X177617619Y-66953905D02*
X177617619Y-67144381D01*
X177617619Y-67144381D02*
X177570000Y-67239619D01*
X177570000Y-67239619D02*
X177522380Y-67287238D01*
X177522380Y-67287238D02*
X177427142Y-67334857D01*
X177427142Y-67334857D02*
X177236666Y-67334857D01*
X177236666Y-67334857D02*
X177141428Y-67287238D01*
X177141428Y-67287238D02*
X177093809Y-67239619D01*
X177093809Y-67239619D02*
X177046190Y-67144381D01*
X166933809Y-55111476D02*
X166933809Y-54778143D01*
X167457619Y-54778143D02*
X166457619Y-54778143D01*
X166457619Y-54778143D02*
X166457619Y-55254333D01*
X167457619Y-56206714D02*
X166981428Y-55873381D01*
X167457619Y-55635286D02*
X166457619Y-55635286D01*
X166457619Y-55635286D02*
X166457619Y-56016238D01*
X166457619Y-56016238D02*
X166505238Y-56111476D01*
X166505238Y-56111476D02*
X166552857Y-56159095D01*
X166552857Y-56159095D02*
X166648095Y-56206714D01*
X166648095Y-56206714D02*
X166790952Y-56206714D01*
X166790952Y-56206714D02*
X166886190Y-56159095D01*
X166886190Y-56159095D02*
X166933809Y-56111476D01*
X166933809Y-56111476D02*
X166981428Y-56016238D01*
X166981428Y-56016238D02*
X166981428Y-55635286D01*
X167552857Y-56397191D02*
X167552857Y-57159095D01*
X167457619Y-57397191D02*
X166457619Y-57397191D01*
X166457619Y-57397191D02*
X166457619Y-57778143D01*
X166457619Y-57778143D02*
X166505238Y-57873381D01*
X166505238Y-57873381D02*
X166552857Y-57921000D01*
X166552857Y-57921000D02*
X166648095Y-57968619D01*
X166648095Y-57968619D02*
X166790952Y-57968619D01*
X166790952Y-57968619D02*
X166886190Y-57921000D01*
X166886190Y-57921000D02*
X166933809Y-57873381D01*
X166933809Y-57873381D02*
X166981428Y-57778143D01*
X166981428Y-57778143D02*
X166981428Y-57397191D01*
X166457619Y-58301953D02*
X167457619Y-58540048D01*
X167457619Y-58540048D02*
X166743333Y-58730524D01*
X166743333Y-58730524D02*
X167457619Y-58921000D01*
X167457619Y-58921000D02*
X166457619Y-59159096D01*
X167751666Y-50140048D02*
X167751666Y-50901953D01*
X167792500Y-62249571D02*
X167792500Y-63392429D01*
X168363928Y-62821000D02*
X167221071Y-62821000D01*
%TO.C,R8*%
X127462619Y-126833333D02*
X126986428Y-126500000D01*
X127462619Y-126261905D02*
X126462619Y-126261905D01*
X126462619Y-126261905D02*
X126462619Y-126642857D01*
X126462619Y-126642857D02*
X126510238Y-126738095D01*
X126510238Y-126738095D02*
X126557857Y-126785714D01*
X126557857Y-126785714D02*
X126653095Y-126833333D01*
X126653095Y-126833333D02*
X126795952Y-126833333D01*
X126795952Y-126833333D02*
X126891190Y-126785714D01*
X126891190Y-126785714D02*
X126938809Y-126738095D01*
X126938809Y-126738095D02*
X126986428Y-126642857D01*
X126986428Y-126642857D02*
X126986428Y-126261905D01*
X126891190Y-127404762D02*
X126843571Y-127309524D01*
X126843571Y-127309524D02*
X126795952Y-127261905D01*
X126795952Y-127261905D02*
X126700714Y-127214286D01*
X126700714Y-127214286D02*
X126653095Y-127214286D01*
X126653095Y-127214286D02*
X126557857Y-127261905D01*
X126557857Y-127261905D02*
X126510238Y-127309524D01*
X126510238Y-127309524D02*
X126462619Y-127404762D01*
X126462619Y-127404762D02*
X126462619Y-127595238D01*
X126462619Y-127595238D02*
X126510238Y-127690476D01*
X126510238Y-127690476D02*
X126557857Y-127738095D01*
X126557857Y-127738095D02*
X126653095Y-127785714D01*
X126653095Y-127785714D02*
X126700714Y-127785714D01*
X126700714Y-127785714D02*
X126795952Y-127738095D01*
X126795952Y-127738095D02*
X126843571Y-127690476D01*
X126843571Y-127690476D02*
X126891190Y-127595238D01*
X126891190Y-127595238D02*
X126891190Y-127404762D01*
X126891190Y-127404762D02*
X126938809Y-127309524D01*
X126938809Y-127309524D02*
X126986428Y-127261905D01*
X126986428Y-127261905D02*
X127081666Y-127214286D01*
X127081666Y-127214286D02*
X127272142Y-127214286D01*
X127272142Y-127214286D02*
X127367380Y-127261905D01*
X127367380Y-127261905D02*
X127415000Y-127309524D01*
X127415000Y-127309524D02*
X127462619Y-127404762D01*
X127462619Y-127404762D02*
X127462619Y-127595238D01*
X127462619Y-127595238D02*
X127415000Y-127690476D01*
X127415000Y-127690476D02*
X127367380Y-127738095D01*
X127367380Y-127738095D02*
X127272142Y-127785714D01*
X127272142Y-127785714D02*
X127081666Y-127785714D01*
X127081666Y-127785714D02*
X126986428Y-127738095D01*
X126986428Y-127738095D02*
X126938809Y-127690476D01*
X126938809Y-127690476D02*
X126891190Y-127595238D01*
X127462619Y-129341666D02*
X127462619Y-128770238D01*
X127462619Y-129055952D02*
X126462619Y-129055952D01*
X126462619Y-129055952D02*
X126605476Y-128960714D01*
X126605476Y-128960714D02*
X126700714Y-128865476D01*
X126700714Y-128865476D02*
X126748333Y-128770238D01*
X127367380Y-129770238D02*
X127415000Y-129817857D01*
X127415000Y-129817857D02*
X127462619Y-129770238D01*
X127462619Y-129770238D02*
X127415000Y-129722619D01*
X127415000Y-129722619D02*
X127367380Y-129770238D01*
X127367380Y-129770238D02*
X127462619Y-129770238D01*
X126557857Y-130198809D02*
X126510238Y-130246428D01*
X126510238Y-130246428D02*
X126462619Y-130341666D01*
X126462619Y-130341666D02*
X126462619Y-130579761D01*
X126462619Y-130579761D02*
X126510238Y-130674999D01*
X126510238Y-130674999D02*
X126557857Y-130722618D01*
X126557857Y-130722618D02*
X126653095Y-130770237D01*
X126653095Y-130770237D02*
X126748333Y-130770237D01*
X126748333Y-130770237D02*
X126891190Y-130722618D01*
X126891190Y-130722618D02*
X127462619Y-130151190D01*
X127462619Y-130151190D02*
X127462619Y-130770237D01*
X127462619Y-131198809D02*
X126462619Y-131198809D01*
X127081666Y-131294047D02*
X127462619Y-131579761D01*
X126795952Y-131579761D02*
X127176904Y-131198809D01*
%TO.C,R7*%
X133516666Y-138257619D02*
X133849999Y-137781428D01*
X134088094Y-138257619D02*
X134088094Y-137257619D01*
X134088094Y-137257619D02*
X133707142Y-137257619D01*
X133707142Y-137257619D02*
X133611904Y-137305238D01*
X133611904Y-137305238D02*
X133564285Y-137352857D01*
X133564285Y-137352857D02*
X133516666Y-137448095D01*
X133516666Y-137448095D02*
X133516666Y-137590952D01*
X133516666Y-137590952D02*
X133564285Y-137686190D01*
X133564285Y-137686190D02*
X133611904Y-137733809D01*
X133611904Y-137733809D02*
X133707142Y-137781428D01*
X133707142Y-137781428D02*
X134088094Y-137781428D01*
X133183332Y-137257619D02*
X132516666Y-137257619D01*
X132516666Y-137257619D02*
X132945237Y-138257619D01*
X131627380Y-137257619D02*
X131008333Y-137257619D01*
X131008333Y-137257619D02*
X131341666Y-137638571D01*
X131341666Y-137638571D02*
X131198809Y-137638571D01*
X131198809Y-137638571D02*
X131103571Y-137686190D01*
X131103571Y-137686190D02*
X131055952Y-137733809D01*
X131055952Y-137733809D02*
X131008333Y-137829047D01*
X131008333Y-137829047D02*
X131008333Y-138067142D01*
X131008333Y-138067142D02*
X131055952Y-138162380D01*
X131055952Y-138162380D02*
X131103571Y-138210000D01*
X131103571Y-138210000D02*
X131198809Y-138257619D01*
X131198809Y-138257619D02*
X131484523Y-138257619D01*
X131484523Y-138257619D02*
X131579761Y-138210000D01*
X131579761Y-138210000D02*
X131627380Y-138162380D01*
X130579761Y-138162380D02*
X130532142Y-138210000D01*
X130532142Y-138210000D02*
X130579761Y-138257619D01*
X130579761Y-138257619D02*
X130627380Y-138210000D01*
X130627380Y-138210000D02*
X130579761Y-138162380D01*
X130579761Y-138162380D02*
X130579761Y-138257619D01*
X130198809Y-137257619D02*
X129579762Y-137257619D01*
X129579762Y-137257619D02*
X129913095Y-137638571D01*
X129913095Y-137638571D02*
X129770238Y-137638571D01*
X129770238Y-137638571D02*
X129675000Y-137686190D01*
X129675000Y-137686190D02*
X129627381Y-137733809D01*
X129627381Y-137733809D02*
X129579762Y-137829047D01*
X129579762Y-137829047D02*
X129579762Y-138067142D01*
X129579762Y-138067142D02*
X129627381Y-138162380D01*
X129627381Y-138162380D02*
X129675000Y-138210000D01*
X129675000Y-138210000D02*
X129770238Y-138257619D01*
X129770238Y-138257619D02*
X130055952Y-138257619D01*
X130055952Y-138257619D02*
X130151190Y-138210000D01*
X130151190Y-138210000D02*
X130198809Y-138162380D01*
X129151190Y-138257619D02*
X129151190Y-137257619D01*
X129055952Y-137876666D02*
X128770238Y-138257619D01*
X128770238Y-137590952D02*
X129151190Y-137971904D01*
%TO.C,Q1*%
X169640238Y-105967857D02*
X169735476Y-105920238D01*
X169735476Y-105920238D02*
X169830714Y-105825000D01*
X169830714Y-105825000D02*
X169973571Y-105682142D01*
X169973571Y-105682142D02*
X170068809Y-105634523D01*
X170068809Y-105634523D02*
X170164047Y-105634523D01*
X170116428Y-105872619D02*
X170211666Y-105825000D01*
X170211666Y-105825000D02*
X170306904Y-105729761D01*
X170306904Y-105729761D02*
X170354523Y-105539285D01*
X170354523Y-105539285D02*
X170354523Y-105205952D01*
X170354523Y-105205952D02*
X170306904Y-105015476D01*
X170306904Y-105015476D02*
X170211666Y-104920238D01*
X170211666Y-104920238D02*
X170116428Y-104872619D01*
X170116428Y-104872619D02*
X169925952Y-104872619D01*
X169925952Y-104872619D02*
X169830714Y-104920238D01*
X169830714Y-104920238D02*
X169735476Y-105015476D01*
X169735476Y-105015476D02*
X169687857Y-105205952D01*
X169687857Y-105205952D02*
X169687857Y-105539285D01*
X169687857Y-105539285D02*
X169735476Y-105729761D01*
X169735476Y-105729761D02*
X169830714Y-105825000D01*
X169830714Y-105825000D02*
X169925952Y-105872619D01*
X169925952Y-105872619D02*
X170116428Y-105872619D01*
X168735476Y-105872619D02*
X169306904Y-105872619D01*
X169021190Y-105872619D02*
X169021190Y-104872619D01*
X169021190Y-104872619D02*
X169116428Y-105015476D01*
X169116428Y-105015476D02*
X169211666Y-105110714D01*
X169211666Y-105110714D02*
X169306904Y-105158333D01*
X170806666Y-110682857D02*
X170759047Y-110635238D01*
X170759047Y-110635238D02*
X170663809Y-110587619D01*
X170663809Y-110587619D02*
X170425714Y-110587619D01*
X170425714Y-110587619D02*
X170330476Y-110635238D01*
X170330476Y-110635238D02*
X170282857Y-110682857D01*
X170282857Y-110682857D02*
X170235238Y-110778095D01*
X170235238Y-110778095D02*
X170235238Y-110873333D01*
X170235238Y-110873333D02*
X170282857Y-111016190D01*
X170282857Y-111016190D02*
X170854285Y-111587619D01*
X170854285Y-111587619D02*
X170235238Y-111587619D01*
X169854285Y-111540000D02*
X169711428Y-111587619D01*
X169711428Y-111587619D02*
X169473333Y-111587619D01*
X169473333Y-111587619D02*
X169378095Y-111540000D01*
X169378095Y-111540000D02*
X169330476Y-111492380D01*
X169330476Y-111492380D02*
X169282857Y-111397142D01*
X169282857Y-111397142D02*
X169282857Y-111301904D01*
X169282857Y-111301904D02*
X169330476Y-111206666D01*
X169330476Y-111206666D02*
X169378095Y-111159047D01*
X169378095Y-111159047D02*
X169473333Y-111111428D01*
X169473333Y-111111428D02*
X169663809Y-111063809D01*
X169663809Y-111063809D02*
X169759047Y-111016190D01*
X169759047Y-111016190D02*
X169806666Y-110968571D01*
X169806666Y-110968571D02*
X169854285Y-110873333D01*
X169854285Y-110873333D02*
X169854285Y-110778095D01*
X169854285Y-110778095D02*
X169806666Y-110682857D01*
X169806666Y-110682857D02*
X169759047Y-110635238D01*
X169759047Y-110635238D02*
X169663809Y-110587619D01*
X169663809Y-110587619D02*
X169425714Y-110587619D01*
X169425714Y-110587619D02*
X169282857Y-110635238D01*
X168282857Y-111492380D02*
X168330476Y-111540000D01*
X168330476Y-111540000D02*
X168473333Y-111587619D01*
X168473333Y-111587619D02*
X168568571Y-111587619D01*
X168568571Y-111587619D02*
X168711428Y-111540000D01*
X168711428Y-111540000D02*
X168806666Y-111444761D01*
X168806666Y-111444761D02*
X168854285Y-111349523D01*
X168854285Y-111349523D02*
X168901904Y-111159047D01*
X168901904Y-111159047D02*
X168901904Y-111016190D01*
X168901904Y-111016190D02*
X168854285Y-110825714D01*
X168854285Y-110825714D02*
X168806666Y-110730476D01*
X168806666Y-110730476D02*
X168711428Y-110635238D01*
X168711428Y-110635238D02*
X168568571Y-110587619D01*
X168568571Y-110587619D02*
X168473333Y-110587619D01*
X168473333Y-110587619D02*
X168330476Y-110635238D01*
X168330476Y-110635238D02*
X168282857Y-110682857D01*
X167330476Y-111587619D02*
X167901904Y-111587619D01*
X167616190Y-111587619D02*
X167616190Y-110587619D01*
X167616190Y-110587619D02*
X167711428Y-110730476D01*
X167711428Y-110730476D02*
X167806666Y-110825714D01*
X167806666Y-110825714D02*
X167901904Y-110873333D01*
X166759047Y-111016190D02*
X166854285Y-110968571D01*
X166854285Y-110968571D02*
X166901904Y-110920952D01*
X166901904Y-110920952D02*
X166949523Y-110825714D01*
X166949523Y-110825714D02*
X166949523Y-110778095D01*
X166949523Y-110778095D02*
X166901904Y-110682857D01*
X166901904Y-110682857D02*
X166854285Y-110635238D01*
X166854285Y-110635238D02*
X166759047Y-110587619D01*
X166759047Y-110587619D02*
X166568571Y-110587619D01*
X166568571Y-110587619D02*
X166473333Y-110635238D01*
X166473333Y-110635238D02*
X166425714Y-110682857D01*
X166425714Y-110682857D02*
X166378095Y-110778095D01*
X166378095Y-110778095D02*
X166378095Y-110825714D01*
X166378095Y-110825714D02*
X166425714Y-110920952D01*
X166425714Y-110920952D02*
X166473333Y-110968571D01*
X166473333Y-110968571D02*
X166568571Y-111016190D01*
X166568571Y-111016190D02*
X166759047Y-111016190D01*
X166759047Y-111016190D02*
X166854285Y-111063809D01*
X166854285Y-111063809D02*
X166901904Y-111111428D01*
X166901904Y-111111428D02*
X166949523Y-111206666D01*
X166949523Y-111206666D02*
X166949523Y-111397142D01*
X166949523Y-111397142D02*
X166901904Y-111492380D01*
X166901904Y-111492380D02*
X166854285Y-111540000D01*
X166854285Y-111540000D02*
X166759047Y-111587619D01*
X166759047Y-111587619D02*
X166568571Y-111587619D01*
X166568571Y-111587619D02*
X166473333Y-111540000D01*
X166473333Y-111540000D02*
X166425714Y-111492380D01*
X166425714Y-111492380D02*
X166378095Y-111397142D01*
X166378095Y-111397142D02*
X166378095Y-111206666D01*
X166378095Y-111206666D02*
X166425714Y-111111428D01*
X166425714Y-111111428D02*
X166473333Y-111063809D01*
X166473333Y-111063809D02*
X166568571Y-111016190D01*
X165425714Y-111587619D02*
X165997142Y-111587619D01*
X165711428Y-111587619D02*
X165711428Y-110587619D01*
X165711428Y-110587619D02*
X165806666Y-110730476D01*
X165806666Y-110730476D02*
X165901904Y-110825714D01*
X165901904Y-110825714D02*
X165997142Y-110873333D01*
X164520952Y-110587619D02*
X164997142Y-110587619D01*
X164997142Y-110587619D02*
X165044761Y-111063809D01*
X165044761Y-111063809D02*
X164997142Y-111016190D01*
X164997142Y-111016190D02*
X164901904Y-110968571D01*
X164901904Y-110968571D02*
X164663809Y-110968571D01*
X164663809Y-110968571D02*
X164568571Y-111016190D01*
X164568571Y-111016190D02*
X164520952Y-111063809D01*
X164520952Y-111063809D02*
X164473333Y-111159047D01*
X164473333Y-111159047D02*
X164473333Y-111397142D01*
X164473333Y-111397142D02*
X164520952Y-111492380D01*
X164520952Y-111492380D02*
X164568571Y-111540000D01*
X164568571Y-111540000D02*
X164663809Y-111587619D01*
X164663809Y-111587619D02*
X164901904Y-111587619D01*
X164901904Y-111587619D02*
X164997142Y-111540000D01*
X164997142Y-111540000D02*
X165044761Y-111492380D01*
%TO.C,J17*%
X157019523Y-138527619D02*
X157019523Y-139241904D01*
X157019523Y-139241904D02*
X157067142Y-139384761D01*
X157067142Y-139384761D02*
X157162380Y-139480000D01*
X157162380Y-139480000D02*
X157305237Y-139527619D01*
X157305237Y-139527619D02*
X157400475Y-139527619D01*
X156019523Y-139527619D02*
X156590951Y-139527619D01*
X156305237Y-139527619D02*
X156305237Y-138527619D01*
X156305237Y-138527619D02*
X156400475Y-138670476D01*
X156400475Y-138670476D02*
X156495713Y-138765714D01*
X156495713Y-138765714D02*
X156590951Y-138813333D01*
X155686189Y-138527619D02*
X155019523Y-138527619D01*
X155019523Y-138527619D02*
X155448094Y-139527619D01*
X147954761Y-129367619D02*
X148430951Y-129367619D01*
X148430951Y-129367619D02*
X148430951Y-128367619D01*
X147621427Y-129367619D02*
X147621427Y-128700952D01*
X147621427Y-128367619D02*
X147669046Y-128415238D01*
X147669046Y-128415238D02*
X147621427Y-128462857D01*
X147621427Y-128462857D02*
X147573808Y-128415238D01*
X147573808Y-128415238D02*
X147621427Y-128367619D01*
X147621427Y-128367619D02*
X147621427Y-128462857D01*
X147145237Y-128700952D02*
X147145237Y-129700952D01*
X147145237Y-128748571D02*
X147049999Y-128700952D01*
X147049999Y-128700952D02*
X146859523Y-128700952D01*
X146859523Y-128700952D02*
X146764285Y-128748571D01*
X146764285Y-128748571D02*
X146716666Y-128796190D01*
X146716666Y-128796190D02*
X146669047Y-128891428D01*
X146669047Y-128891428D02*
X146669047Y-129177142D01*
X146669047Y-129177142D02*
X146716666Y-129272380D01*
X146716666Y-129272380D02*
X146764285Y-129320000D01*
X146764285Y-129320000D02*
X146859523Y-129367619D01*
X146859523Y-129367619D02*
X147049999Y-129367619D01*
X147049999Y-129367619D02*
X147145237Y-129320000D01*
X146097618Y-129367619D02*
X146192856Y-129320000D01*
X146192856Y-129320000D02*
X146240475Y-129272380D01*
X146240475Y-129272380D02*
X146288094Y-129177142D01*
X146288094Y-129177142D02*
X146288094Y-128891428D01*
X146288094Y-128891428D02*
X146240475Y-128796190D01*
X146240475Y-128796190D02*
X146192856Y-128748571D01*
X146192856Y-128748571D02*
X146097618Y-128700952D01*
X146097618Y-128700952D02*
X145954761Y-128700952D01*
X145954761Y-128700952D02*
X145859523Y-128748571D01*
X145859523Y-128748571D02*
X145811904Y-128796190D01*
X145811904Y-128796190D02*
X145764285Y-128891428D01*
X145764285Y-128891428D02*
X145764285Y-129177142D01*
X145764285Y-129177142D02*
X145811904Y-129272380D01*
X145811904Y-129272380D02*
X145859523Y-129320000D01*
X145859523Y-129320000D02*
X145954761Y-129367619D01*
X145954761Y-129367619D02*
X146097618Y-129367619D01*
X145573809Y-129462857D02*
X144811904Y-129462857D01*
X144573808Y-129367619D02*
X144573808Y-128367619D01*
X144097618Y-128700952D02*
X144097618Y-129367619D01*
X144097618Y-128796190D02*
X144049999Y-128748571D01*
X144049999Y-128748571D02*
X143954761Y-128700952D01*
X143954761Y-128700952D02*
X143811904Y-128700952D01*
X143811904Y-128700952D02*
X143716666Y-128748571D01*
X143716666Y-128748571D02*
X143669047Y-128843809D01*
X143669047Y-128843809D02*
X143669047Y-129367619D01*
X152521428Y-129537500D02*
X151378571Y-129537500D01*
X151949999Y-130108928D02*
X151949999Y-128966071D01*
X140221428Y-129537500D02*
X139078571Y-129537500D01*
D12*
%TO.C,J19*%
X177940000Y-130904000D02*
X172330000Y-130904000D01*
X177940000Y-130904000D02*
X177940000Y-130054000D01*
X185640000Y-130054000D02*
X177940000Y-130054000D01*
X185640000Y-130054000D02*
X185640000Y-116034000D01*
X168220000Y-125494000D02*
X168220000Y-121754000D01*
X177940000Y-116034000D02*
X177940000Y-115184000D01*
X185640000Y-116034000D02*
X177940000Y-116034000D01*
X177940000Y-115184000D02*
X172330000Y-115184000D01*
X168371282Y-128033900D02*
G75*
G03*
X172330000Y-130903999I3918716J1239898D01*
G01*
X172330000Y-115184000D02*
G75*
G03*
X168807042Y-117177194I0J-4110000D01*
G01*
%TO.C,U3*%
X136323000Y-71728000D02*
X136323000Y-66428000D01*
X156763000Y-71728000D02*
X136323000Y-71728000D01*
X156763000Y-70078000D02*
X156763000Y-71728000D01*
X136323000Y-66428000D02*
X156763000Y-66428000D01*
X156763000Y-66428000D02*
X156763000Y-68078000D01*
X156763000Y-68078000D02*
G75*
G03*
X156763000Y-70078000I0J-1000000D01*
G01*
%TO.C,Q2*%
X165630000Y-116150000D02*
X162030000Y-116150000D01*
X165668478Y-116138478D02*
G75*
G03*
X163830000Y-111700000I-1838478J1838478D01*
G01*
X163830000Y-111700000D02*
G75*
G03*
X161991522Y-116138478I0J-2600000D01*
G01*
%TO.C,J20*%
X114191000Y-49144000D02*
X119801000Y-49144000D01*
X114191000Y-49144000D02*
X114191000Y-49994000D01*
X106491000Y-49994000D02*
X114191000Y-49994000D01*
X106491000Y-49994000D02*
X106491000Y-64014000D01*
X123911000Y-54554000D02*
X123911000Y-58294000D01*
X114191000Y-64014000D02*
X114191000Y-64864000D01*
X106491000Y-64014000D02*
X114191000Y-64014000D01*
X114191000Y-64864000D02*
X119801000Y-64864000D01*
X123759718Y-52014100D02*
G75*
G03*
X119801000Y-49144001I-3918716J-1239898D01*
G01*
X119801000Y-64864000D02*
G75*
G03*
X123323958Y-62870806I0J4110000D01*
G01*
%TO.C,R2*%
X163195000Y-108180000D02*
X163195000Y-107410000D01*
X161825000Y-107410000D02*
X161825000Y-100870000D01*
X164565000Y-107410000D02*
X161825000Y-107410000D01*
X161825000Y-100870000D02*
X164565000Y-100870000D01*
X164565000Y-100870000D02*
X164565000Y-107410000D01*
X163195000Y-100100000D02*
X163195000Y-100870000D01*
%TO.C,R1*%
X166370000Y-103100000D02*
X166370000Y-102330000D01*
X165000000Y-102330000D02*
X165000000Y-95790000D01*
X167740000Y-102330000D02*
X165000000Y-102330000D01*
X165000000Y-95790000D02*
X167740000Y-95790000D01*
X167740000Y-95790000D02*
X167740000Y-102330000D01*
X166370000Y-95020000D02*
X166370000Y-95790000D01*
%TO.C,J4*%
X112885000Y-114200000D02*
X124605000Y-114200000D01*
X124605000Y-114200000D02*
X124605000Y-112780000D01*
X120105000Y-112780000D02*
X120105000Y-104140000D01*
X124605000Y-112780000D02*
X120105000Y-112780000D01*
X124295000Y-111940000D02*
X124295000Y-111340000D01*
X113495000Y-111890000D02*
X113495000Y-111390000D01*
X118995000Y-111890000D02*
X113495000Y-111890000D01*
X123695000Y-111640000D02*
X124295000Y-111940000D01*
X113495000Y-111390000D02*
X118995000Y-111390000D01*
X118995000Y-111390000D02*
X118995000Y-111890000D01*
X124295000Y-111340000D02*
X123695000Y-111640000D01*
X113495000Y-109390000D02*
X113495000Y-108890000D01*
X118995000Y-109390000D02*
X113495000Y-109390000D01*
X113495000Y-108890000D02*
X118995000Y-108890000D01*
X118995000Y-108890000D02*
X118995000Y-109390000D01*
X113495000Y-106890000D02*
X113495000Y-106390000D01*
X118995000Y-106890000D02*
X113495000Y-106890000D01*
X113495000Y-106390000D02*
X118995000Y-106390000D01*
X118995000Y-106390000D02*
X118995000Y-106890000D01*
X113495000Y-104390000D02*
X113495000Y-103890000D01*
X118995000Y-104390000D02*
X113495000Y-104390000D01*
X112885000Y-104140000D02*
X112885000Y-114200000D01*
X112885000Y-104140000D02*
X112885000Y-94080000D01*
X113495000Y-103890000D02*
X118995000Y-103890000D01*
X118995000Y-103890000D02*
X118995000Y-104390000D01*
X113495000Y-101890000D02*
X113495000Y-101390000D01*
X118995000Y-101890000D02*
X113495000Y-101890000D01*
X113495000Y-101390000D02*
X118995000Y-101390000D01*
X118995000Y-101390000D02*
X118995000Y-101890000D01*
X113495000Y-99390000D02*
X113495000Y-98890000D01*
X118995000Y-99390000D02*
X113495000Y-99390000D01*
X113495000Y-98890000D02*
X118995000Y-98890000D01*
X118995000Y-98890000D02*
X118995000Y-99390000D01*
X113495000Y-96890000D02*
X113495000Y-96390000D01*
X118995000Y-96890000D02*
X113495000Y-96890000D01*
X113495000Y-96390000D02*
X118995000Y-96390000D01*
X118995000Y-96390000D02*
X118995000Y-96890000D01*
X120105000Y-95500000D02*
X120105000Y-104140000D01*
X124605000Y-95500000D02*
X120105000Y-95500000D01*
X112885000Y-94080000D02*
X124605000Y-94080000D01*
X124605000Y-94080000D02*
X124605000Y-95500000D01*
%TO.C,G\u002A\u002A\u002A*%
G36*
X165640884Y-68017921D02*
G01*
X165661706Y-68069876D01*
X165685996Y-68130696D01*
X165705463Y-68179659D01*
X165731917Y-68246464D01*
X165539724Y-68246464D01*
X165481319Y-68094087D01*
X165459698Y-68037010D01*
X165440605Y-67985201D01*
X165427672Y-67948454D01*
X165422914Y-67932349D01*
X165434269Y-67927809D01*
X165466706Y-67924322D01*
X165512836Y-67922987D01*
X165602758Y-67922987D01*
X165640884Y-68017921D01*
G37*
G36*
X165296721Y-68039017D02*
G01*
X165303421Y-68056399D01*
X165326254Y-68115123D01*
X165346544Y-68166601D01*
X165360549Y-68201317D01*
X165379755Y-68247586D01*
X165149451Y-68239432D01*
X165090411Y-68091758D01*
X165069409Y-68038722D01*
X165049413Y-67987071D01*
X165035636Y-67950111D01*
X165030243Y-67933535D01*
X165031130Y-67932096D01*
X165050111Y-67927456D01*
X165088802Y-67924209D01*
X165140607Y-67922987D01*
X165252099Y-67922987D01*
X165296721Y-68039017D01*
G37*
G36*
X163009999Y-67954632D02*
G01*
X163012646Y-67969637D01*
X163018493Y-68008933D01*
X163025625Y-68060986D01*
X163032994Y-68117675D01*
X163039555Y-68170879D01*
X163044258Y-68212476D01*
X163046059Y-68234345D01*
X163045497Y-68235082D01*
X163026992Y-68238764D01*
X162985411Y-68242294D01*
X162924958Y-68245445D01*
X162849842Y-68247986D01*
X162764269Y-68249689D01*
X162482480Y-68253496D01*
X162695332Y-68619166D01*
X162711906Y-68647652D01*
X162765487Y-68739919D01*
X162814684Y-68824896D01*
X162857538Y-68899182D01*
X162892090Y-68959378D01*
X162916382Y-69002081D01*
X162928454Y-69023892D01*
X162948724Y-69062948D01*
X162535454Y-69055158D01*
X162214123Y-68502086D01*
X162159695Y-68408216D01*
X162097349Y-68300201D01*
X162040724Y-68201562D01*
X161991231Y-68114784D01*
X161950280Y-68042354D01*
X161919283Y-67986756D01*
X161899650Y-67950476D01*
X161892792Y-67936000D01*
X161904372Y-67933051D01*
X161942024Y-67930184D01*
X162003708Y-67927727D01*
X162087289Y-67925728D01*
X162190631Y-67924239D01*
X162311600Y-67923308D01*
X162448061Y-67922987D01*
X163003330Y-67922987D01*
X163009999Y-67954632D01*
G37*
G36*
X173162570Y-72728806D02*
G01*
X173169222Y-72761943D01*
X173177975Y-72814750D01*
X173188096Y-72882758D01*
X173198853Y-72961498D01*
X173207347Y-73025482D01*
X173217674Y-73101061D01*
X173226665Y-73164448D01*
X173233572Y-73210407D01*
X173237651Y-73233703D01*
X173239338Y-73239637D01*
X173244164Y-73247343D01*
X173254485Y-73253355D01*
X173273534Y-73258006D01*
X173304543Y-73261633D01*
X173350745Y-73264570D01*
X173415370Y-73267152D01*
X173501652Y-73269715D01*
X173612823Y-73272593D01*
X173677084Y-73274268D01*
X173792745Y-73277512D01*
X173907779Y-73280995D01*
X174015313Y-73284499D01*
X174108473Y-73287804D01*
X174180385Y-73290691D01*
X174379772Y-73299495D01*
X174405348Y-73399475D01*
X174406726Y-73404890D01*
X174418763Y-73454903D01*
X174426951Y-73493787D01*
X174429583Y-73513519D01*
X174425398Y-73520914D01*
X174406791Y-73549712D01*
X174374537Y-73598242D01*
X174329995Y-73664518D01*
X174274524Y-73746550D01*
X174209483Y-73842352D01*
X174136229Y-73949936D01*
X174056120Y-74067313D01*
X173970517Y-74192495D01*
X173880776Y-74323496D01*
X173788256Y-74458327D01*
X173694317Y-74595000D01*
X173600315Y-74731527D01*
X173507610Y-74865921D01*
X173417560Y-74996193D01*
X173331523Y-75120357D01*
X173241251Y-75250451D01*
X172381369Y-75250451D01*
X172421124Y-75197710D01*
X172431219Y-75184467D01*
X172458459Y-75148959D01*
X172500268Y-75094569D01*
X172555171Y-75023219D01*
X172621688Y-74936825D01*
X172698343Y-74837308D01*
X172783657Y-74726585D01*
X172876153Y-74606577D01*
X172974353Y-74479200D01*
X173076780Y-74346375D01*
X173160889Y-74237189D01*
X173257963Y-74110842D01*
X173348721Y-73992361D01*
X173431799Y-73883541D01*
X173505835Y-73786180D01*
X173569465Y-73702076D01*
X173621328Y-73633025D01*
X173660060Y-73580825D01*
X173684299Y-73547273D01*
X173692681Y-73534165D01*
X173691610Y-73533059D01*
X173670272Y-73529406D01*
X173622691Y-73526327D01*
X173550340Y-73523861D01*
X173454693Y-73522049D01*
X173337223Y-73520932D01*
X173199402Y-73520551D01*
X173122704Y-73520510D01*
X173004258Y-73520186D01*
X172910006Y-73519452D01*
X172837414Y-73518206D01*
X172783948Y-73516344D01*
X172747075Y-73513763D01*
X172724260Y-73510361D01*
X172712970Y-73506034D01*
X172710670Y-73500679D01*
X172713633Y-73493538D01*
X172728599Y-73464399D01*
X172754258Y-73417170D01*
X172788570Y-73355403D01*
X172829497Y-73282650D01*
X172875000Y-73202461D01*
X172923040Y-73118388D01*
X172971579Y-73033983D01*
X173018579Y-72952796D01*
X173062000Y-72878380D01*
X173099804Y-72814285D01*
X173129953Y-72764062D01*
X173150408Y-72731264D01*
X173159130Y-72719441D01*
X173162570Y-72728806D01*
G37*
G36*
X168917875Y-72816795D02*
G01*
X169067267Y-72817075D01*
X169223133Y-72817706D01*
X169376825Y-72818643D01*
X169524017Y-72819847D01*
X169660384Y-72821278D01*
X169781599Y-72822895D01*
X169883338Y-72824657D01*
X169961274Y-72826524D01*
X170273333Y-72835736D01*
X170281438Y-72886311D01*
X170284001Y-72904280D01*
X170290066Y-72948902D01*
X170299188Y-73017036D01*
X170311058Y-73106351D01*
X170325370Y-73214516D01*
X170341816Y-73339202D01*
X170360087Y-73478078D01*
X170379877Y-73628813D01*
X170400877Y-73789078D01*
X170422779Y-73956542D01*
X170445115Y-74127380D01*
X170470140Y-74318443D01*
X170492015Y-74484967D01*
X170510993Y-74628821D01*
X170527330Y-74751874D01*
X170541279Y-74855995D01*
X170553094Y-74943054D01*
X170563030Y-75014920D01*
X170571340Y-75073461D01*
X170578278Y-75120548D01*
X170584099Y-75158050D01*
X170589057Y-75187836D01*
X170593406Y-75211774D01*
X170600786Y-75250451D01*
X169955716Y-75250451D01*
X169932567Y-75106293D01*
X169932231Y-75104181D01*
X169926059Y-75062467D01*
X169916760Y-74995956D01*
X169904716Y-74907536D01*
X169890310Y-74800090D01*
X169873926Y-74676506D01*
X169855944Y-74539669D01*
X169836749Y-74392464D01*
X169816723Y-74237777D01*
X169796249Y-74078493D01*
X169793294Y-74055439D01*
X169773123Y-73898951D01*
X169753607Y-73749050D01*
X169735107Y-73608403D01*
X169717980Y-73479674D01*
X169702586Y-73365527D01*
X169689284Y-73268628D01*
X169678433Y-73191641D01*
X169670392Y-73137230D01*
X169665519Y-73108062D01*
X169647958Y-73021271D01*
X169243918Y-73017538D01*
X168839878Y-73013806D01*
X168846825Y-73045667D01*
X168847045Y-73046684D01*
X168855371Y-73092338D01*
X168866443Y-73164070D01*
X168880030Y-73260048D01*
X168895902Y-73378440D01*
X168913830Y-73517414D01*
X168933585Y-73675136D01*
X168954936Y-73849775D01*
X168977654Y-74039499D01*
X169001510Y-74242474D01*
X169026274Y-74456868D01*
X169051717Y-74680850D01*
X169062743Y-74778275D01*
X169075335Y-74888401D01*
X169086864Y-74988033D01*
X169096920Y-75073679D01*
X169105091Y-75141846D01*
X169110967Y-75189042D01*
X169114138Y-75211774D01*
X169121103Y-75250451D01*
X168477324Y-75250451D01*
X168468941Y-75197710D01*
X168466087Y-75176766D01*
X168460227Y-75129481D01*
X168452027Y-75060922D01*
X168441909Y-74974675D01*
X168430294Y-74874330D01*
X168417600Y-74763472D01*
X168404250Y-74645689D01*
X168402212Y-74627663D01*
X168387127Y-74495929D01*
X168369426Y-74343826D01*
X168349885Y-74177888D01*
X168329281Y-74004650D01*
X168308391Y-73830648D01*
X168287992Y-73662415D01*
X168268859Y-73506487D01*
X168255260Y-73396268D01*
X168239865Y-73271040D01*
X168225819Y-73156289D01*
X168213474Y-73054923D01*
X168203182Y-72969847D01*
X168195297Y-72903967D01*
X168190171Y-72860190D01*
X168188156Y-72841421D01*
X168188625Y-72836715D01*
X168192540Y-72831887D01*
X168202222Y-72827888D01*
X168219909Y-72824645D01*
X168247836Y-72822080D01*
X168288239Y-72820118D01*
X168343354Y-72818684D01*
X168415418Y-72817703D01*
X168506666Y-72817099D01*
X168619334Y-72816797D01*
X168755658Y-72816720D01*
X168917875Y-72816795D01*
G37*
G36*
X166828606Y-69226852D02*
G01*
X166830339Y-69235446D01*
X166836299Y-69272506D01*
X166845320Y-69334159D01*
X166857107Y-69418188D01*
X166871363Y-69522380D01*
X166887790Y-69644520D01*
X166906092Y-69782393D01*
X166925972Y-69933785D01*
X166947134Y-70096480D01*
X166969280Y-70268265D01*
X166992114Y-70446924D01*
X167004145Y-70541373D01*
X167026400Y-70715569D01*
X167047642Y-70881182D01*
X167067590Y-71036065D01*
X167085966Y-71178071D01*
X167102489Y-71305053D01*
X167116880Y-71414864D01*
X167128858Y-71505358D01*
X167138144Y-71574386D01*
X167144458Y-71619802D01*
X167147521Y-71639460D01*
X167156093Y-71678137D01*
X164975746Y-71678137D01*
X164959109Y-71583203D01*
X164952416Y-71542199D01*
X164943262Y-71481900D01*
X164932345Y-71407208D01*
X164920242Y-71322345D01*
X164907528Y-71231534D01*
X164894782Y-71139000D01*
X164882580Y-71048967D01*
X164871500Y-70965656D01*
X164862118Y-70893293D01*
X164855012Y-70836101D01*
X164850758Y-70798303D01*
X164849935Y-70784124D01*
X164858465Y-70783392D01*
X164890971Y-70783353D01*
X164943220Y-70784257D01*
X165010423Y-70785936D01*
X165087795Y-70788224D01*
X165170551Y-70790952D01*
X165253903Y-70793955D01*
X165333067Y-70797065D01*
X165403256Y-70800114D01*
X165459683Y-70802937D01*
X165497564Y-70805366D01*
X165512112Y-70807234D01*
X165512667Y-70808748D01*
X165516829Y-70830683D01*
X165523839Y-70875145D01*
X165533073Y-70937916D01*
X165543906Y-71014776D01*
X165555713Y-71101503D01*
X165558208Y-71120105D01*
X165570171Y-71208324D01*
X165581198Y-71288144D01*
X165590601Y-71354695D01*
X165597694Y-71403103D01*
X165601791Y-71428496D01*
X165609265Y-71467173D01*
X166036466Y-71467173D01*
X166101975Y-71467226D01*
X166211895Y-71467383D01*
X166297817Y-71467022D01*
X166362481Y-71465447D01*
X166408628Y-71461958D01*
X166438998Y-71455856D01*
X166456333Y-71446442D01*
X166463372Y-71433017D01*
X166462857Y-71414883D01*
X166457528Y-71391341D01*
X166450126Y-71361691D01*
X166446257Y-71339000D01*
X166439162Y-71290615D01*
X166429265Y-71219475D01*
X166416914Y-71128203D01*
X166402457Y-71019418D01*
X166386242Y-70895743D01*
X166368617Y-70759798D01*
X166349931Y-70614203D01*
X166330532Y-70461581D01*
X166313016Y-70323790D01*
X166293660Y-70173080D01*
X166275084Y-70030033D01*
X166257675Y-69897541D01*
X166241818Y-69778498D01*
X166227899Y-69675796D01*
X166216303Y-69592328D01*
X166207417Y-69530987D01*
X166201626Y-69494665D01*
X166179460Y-69371603D01*
X165352057Y-69371603D01*
X165360532Y-69410279D01*
X165367557Y-69440350D01*
X165374882Y-69467734D01*
X165376490Y-69476097D01*
X165381352Y-69508646D01*
X165388392Y-69559762D01*
X165396876Y-69623694D01*
X165406070Y-69694688D01*
X165415238Y-69766991D01*
X165423648Y-69834848D01*
X165430564Y-69892508D01*
X165435252Y-69934216D01*
X165436978Y-69954219D01*
X165431693Y-69955660D01*
X165402745Y-69957796D01*
X165351981Y-69959624D01*
X165283292Y-69961047D01*
X165200570Y-69961971D01*
X165107705Y-69962300D01*
X164778432Y-69962300D01*
X164769911Y-69909560D01*
X164769862Y-69909254D01*
X164765345Y-69878422D01*
X164758005Y-69825178D01*
X164748567Y-69754920D01*
X164737757Y-69673044D01*
X164726298Y-69584948D01*
X164726257Y-69584629D01*
X164714511Y-69496005D01*
X164702963Y-69413134D01*
X164692431Y-69341555D01*
X164683728Y-69286810D01*
X164677670Y-69254439D01*
X164674623Y-69240832D01*
X164667006Y-69202228D01*
X164663789Y-69178220D01*
X164665362Y-69176276D01*
X164676884Y-69173136D01*
X164700912Y-69170416D01*
X164739009Y-69168092D01*
X164792735Y-69166136D01*
X164863653Y-69164524D01*
X164953326Y-69163231D01*
X165063317Y-69162230D01*
X165195186Y-69161495D01*
X165350496Y-69161003D01*
X165530810Y-69160726D01*
X165737690Y-69160639D01*
X166811934Y-69160639D01*
X166828606Y-69226852D01*
G37*
G36*
X169885816Y-70408840D02*
G01*
X169909790Y-70589762D01*
X169933126Y-70766248D01*
X169955106Y-70932846D01*
X169975467Y-71087557D01*
X169993948Y-71228380D01*
X170010288Y-71353317D01*
X170024225Y-71460369D01*
X170035498Y-71547536D01*
X170043844Y-71612818D01*
X170049004Y-71654216D01*
X170050715Y-71669731D01*
X170047623Y-71670537D01*
X170021610Y-71672051D01*
X169971309Y-71673295D01*
X169899332Y-71674279D01*
X169808291Y-71675016D01*
X169700801Y-71675516D01*
X169579473Y-71675791D01*
X169446921Y-71675851D01*
X169305757Y-71675708D01*
X169158594Y-71675373D01*
X169008046Y-71674857D01*
X168856724Y-71674171D01*
X168707243Y-71673327D01*
X168562214Y-71672335D01*
X168424251Y-71671207D01*
X168295967Y-71669954D01*
X168179973Y-71668588D01*
X168078885Y-71667118D01*
X167995313Y-71665557D01*
X167931871Y-71663915D01*
X167891173Y-71662205D01*
X167875830Y-71660436D01*
X167872294Y-71646276D01*
X167865912Y-71608370D01*
X167857334Y-71551084D01*
X167847114Y-71478713D01*
X167835803Y-71395551D01*
X167823955Y-71305893D01*
X167812122Y-71214032D01*
X167800858Y-71124264D01*
X167790715Y-71040883D01*
X167782246Y-70968183D01*
X167776004Y-70910458D01*
X167772542Y-70872004D01*
X167772412Y-70857114D01*
X167777726Y-70856029D01*
X167806581Y-70854955D01*
X167856026Y-70854950D01*
X167921194Y-70855859D01*
X167997217Y-70857529D01*
X168079227Y-70859807D01*
X168162359Y-70862540D01*
X168241744Y-70865575D01*
X168312515Y-70868757D01*
X168369805Y-70871934D01*
X168408747Y-70874952D01*
X168424474Y-70877658D01*
X168428818Y-70893271D01*
X168436094Y-70932333D01*
X168445537Y-70990300D01*
X168456413Y-71062655D01*
X168467984Y-71144879D01*
X168478930Y-71224220D01*
X168489814Y-71301145D01*
X168499185Y-71365380D01*
X168506305Y-71411863D01*
X168510434Y-71435529D01*
X168517581Y-71467173D01*
X169346834Y-71467173D01*
X169346563Y-71393336D01*
X169345532Y-71374207D01*
X169341103Y-71326817D01*
X169333523Y-71257456D01*
X169323162Y-71168897D01*
X169310389Y-71063909D01*
X169295574Y-70945264D01*
X169279087Y-70815732D01*
X169261298Y-70678086D01*
X169242577Y-70535096D01*
X169223293Y-70389533D01*
X169203816Y-70244169D01*
X169184515Y-70101773D01*
X169165762Y-69965119D01*
X169147924Y-69836976D01*
X169131373Y-69720115D01*
X169116478Y-69617308D01*
X169103608Y-69531327D01*
X169093134Y-69464941D01*
X169085425Y-69420922D01*
X169080850Y-69402042D01*
X169080568Y-69401515D01*
X169075072Y-69392700D01*
X169067048Y-69385814D01*
X169053293Y-69380617D01*
X169030609Y-69376872D01*
X168995797Y-69374341D01*
X168945655Y-69372786D01*
X168876984Y-69371970D01*
X168786584Y-69371655D01*
X168671256Y-69371603D01*
X168277953Y-69371603D01*
X168277953Y-69459504D01*
X168278498Y-69477065D01*
X168282198Y-69528437D01*
X168288862Y-69599361D01*
X168297863Y-69684429D01*
X168308574Y-69778231D01*
X168320368Y-69875357D01*
X168332618Y-69970399D01*
X168344697Y-70057945D01*
X168355978Y-70132588D01*
X168364135Y-70183330D01*
X168556620Y-70192615D01*
X168556881Y-70192627D01*
X168640692Y-70196916D01*
X168726652Y-70201729D01*
X168804679Y-70206478D01*
X168864688Y-70210576D01*
X168980272Y-70219252D01*
X169001814Y-70293356D01*
X169001992Y-70293966D01*
X169010915Y-70321697D01*
X169018534Y-70344762D01*
X169022613Y-70363588D01*
X169020919Y-70378601D01*
X169011215Y-70390226D01*
X168991266Y-70398890D01*
X168958839Y-70405017D01*
X168911696Y-70409033D01*
X168847604Y-70411364D01*
X168764328Y-70412437D01*
X168659632Y-70412676D01*
X168531281Y-70412507D01*
X168377040Y-70412356D01*
X167730722Y-70412356D01*
X167722981Y-70366647D01*
X167722935Y-70366374D01*
X167719390Y-70341606D01*
X167712853Y-70292435D01*
X167703763Y-70222290D01*
X167692558Y-70134600D01*
X167679676Y-70032796D01*
X167665555Y-69920307D01*
X167650634Y-69800562D01*
X167650582Y-69800137D01*
X167635626Y-69679683D01*
X167621491Y-69565863D01*
X167608618Y-69462225D01*
X167597448Y-69372314D01*
X167588420Y-69299677D01*
X167581976Y-69247861D01*
X167578556Y-69220412D01*
X167571083Y-69160639D01*
X169720248Y-69160639D01*
X169885816Y-70408840D01*
G37*
G36*
X167781759Y-74884014D02*
G01*
X167791692Y-74949491D01*
X167797882Y-74991483D01*
X167799995Y-75007843D01*
X167796639Y-75011257D01*
X167781398Y-75015030D01*
X167752016Y-75018121D01*
X167706496Y-75020583D01*
X167642838Y-75022474D01*
X167559046Y-75023847D01*
X167453120Y-75024760D01*
X167323064Y-75025267D01*
X167166879Y-75025423D01*
X167062576Y-75025568D01*
X166939212Y-75026133D01*
X166827158Y-75027084D01*
X166729217Y-75028373D01*
X166648192Y-75029953D01*
X166586887Y-75031777D01*
X166548105Y-75033799D01*
X166534647Y-75035972D01*
X166536240Y-75040045D01*
X166548708Y-75065348D01*
X166572200Y-75110835D01*
X166605101Y-75173440D01*
X166645794Y-75250094D01*
X166692661Y-75337732D01*
X166744087Y-75433286D01*
X166952868Y-75820052D01*
X167193483Y-75823901D01*
X167229698Y-75824424D01*
X167311739Y-75824928D01*
X167370001Y-75823907D01*
X167407658Y-75821176D01*
X167427881Y-75816547D01*
X167433843Y-75809836D01*
X167433842Y-75809801D01*
X167431549Y-75789451D01*
X167425532Y-75747490D01*
X167416702Y-75690023D01*
X167405970Y-75623153D01*
X167402906Y-75604734D01*
X167389176Y-75526295D01*
X167380732Y-75469584D01*
X167380819Y-75431128D01*
X167392684Y-75407453D01*
X167419573Y-75395085D01*
X167464733Y-75390552D01*
X167531409Y-75390379D01*
X167622849Y-75391093D01*
X167867855Y-75391093D01*
X167875965Y-75429770D01*
X167876889Y-75434489D01*
X167882304Y-75465137D01*
X167890887Y-75515879D01*
X167901860Y-75581931D01*
X167914448Y-75658508D01*
X167927874Y-75740825D01*
X167941364Y-75824099D01*
X167954142Y-75903544D01*
X167965430Y-75974376D01*
X167974454Y-76031811D01*
X167980437Y-76071063D01*
X167982604Y-76087349D01*
X167977835Y-76088128D01*
X167948858Y-76089295D01*
X167895797Y-76090251D01*
X167821201Y-76090985D01*
X167727616Y-76091485D01*
X167617590Y-76091739D01*
X167493670Y-76091736D01*
X167358406Y-76091463D01*
X167214343Y-76090909D01*
X166446081Y-76087273D01*
X166173378Y-75566896D01*
X166146620Y-75515761D01*
X166089059Y-75405251D01*
X166035875Y-75302456D01*
X165988526Y-75210237D01*
X165948470Y-75131454D01*
X165917165Y-75068967D01*
X165896069Y-75025638D01*
X165886640Y-75004327D01*
X165882273Y-74984515D01*
X165873753Y-74939027D01*
X165861512Y-74870271D01*
X165845936Y-74780520D01*
X165827410Y-74672048D01*
X165806320Y-74547126D01*
X165783052Y-74408029D01*
X165757992Y-74257029D01*
X165731525Y-74096400D01*
X165704037Y-73928413D01*
X165677052Y-73763077D01*
X165650800Y-73602520D01*
X165626081Y-73451627D01*
X165603268Y-73312661D01*
X165582734Y-73187883D01*
X165564852Y-73079557D01*
X165556426Y-73028733D01*
X166154254Y-73028733D01*
X166156081Y-73041894D01*
X166162096Y-73080301D01*
X166171842Y-73140950D01*
X166184838Y-73220949D01*
X166200607Y-73317404D01*
X166218667Y-73427424D01*
X166238540Y-73548115D01*
X166259746Y-73676584D01*
X166281805Y-73809939D01*
X166304239Y-73945287D01*
X166326567Y-74079735D01*
X166348310Y-74210390D01*
X166368988Y-74334359D01*
X166388122Y-74448750D01*
X166405233Y-74550670D01*
X166419841Y-74637227D01*
X166431466Y-74705526D01*
X166439628Y-74752676D01*
X166443850Y-74775783D01*
X166451838Y-74814460D01*
X167181479Y-74814460D01*
X167174068Y-74782815D01*
X167173783Y-74781459D01*
X167169703Y-74758543D01*
X167161720Y-74711571D01*
X167150304Y-74643423D01*
X167135928Y-74556976D01*
X167119063Y-74455108D01*
X167100180Y-74340699D01*
X167079751Y-74216625D01*
X167058247Y-74085766D01*
X167036140Y-73950999D01*
X167013901Y-73815202D01*
X166992001Y-73681255D01*
X166970912Y-73552034D01*
X166951105Y-73430419D01*
X166933052Y-73319287D01*
X166917224Y-73221517D01*
X166904093Y-73139986D01*
X166894130Y-73077574D01*
X166887807Y-73037158D01*
X166885594Y-73021617D01*
X166874058Y-73019781D01*
X166837889Y-73017984D01*
X166780698Y-73016457D01*
X166706179Y-73015274D01*
X166618023Y-73014510D01*
X166519924Y-73014238D01*
X166499723Y-73014250D01*
X166376108Y-73014966D01*
X166279471Y-73016784D01*
X166210094Y-73019692D01*
X166168261Y-73023679D01*
X166154254Y-73028733D01*
X165556426Y-73028733D01*
X165549995Y-72989945D01*
X165538535Y-72921309D01*
X165530845Y-72875912D01*
X165527299Y-72856016D01*
X165519129Y-72817339D01*
X167456577Y-72817339D01*
X167628399Y-73903801D01*
X167635480Y-73948588D01*
X167662263Y-74118299D01*
X167687640Y-74279564D01*
X167711278Y-74430236D01*
X167732843Y-74568165D01*
X167752001Y-74691203D01*
X167768418Y-74797202D01*
X167771070Y-74814460D01*
X167781759Y-74884014D01*
G37*
G36*
X173351134Y-71948466D02*
G01*
X173550842Y-71952389D01*
X172733408Y-73358278D01*
X171915975Y-74764168D01*
X171950492Y-75007310D01*
X171985010Y-75250451D01*
X171808641Y-75250627D01*
X171632272Y-75250802D01*
X170331330Y-77488928D01*
X170250529Y-77627946D01*
X170115305Y-77860644D01*
X169983143Y-78088122D01*
X169854835Y-78309018D01*
X169731174Y-78521966D01*
X169612949Y-78725603D01*
X169500952Y-78918564D01*
X169395975Y-79099486D01*
X169298809Y-79267005D01*
X169210244Y-79419757D01*
X169131073Y-79556377D01*
X169062087Y-79675502D01*
X169004076Y-79775768D01*
X168957832Y-79855810D01*
X168924147Y-79914264D01*
X168903811Y-79949767D01*
X168865051Y-80017366D01*
X168828778Y-80079411D01*
X168799338Y-80128469D01*
X168779042Y-80160692D01*
X168770201Y-80172233D01*
X168764598Y-80163118D01*
X168746114Y-80131077D01*
X168715626Y-80077539D01*
X168674050Y-80004140D01*
X168622304Y-79912516D01*
X168561305Y-79804304D01*
X168491968Y-79681142D01*
X168415212Y-79544665D01*
X168331953Y-79396510D01*
X168243107Y-79238313D01*
X168149593Y-79071712D01*
X168052326Y-78898343D01*
X167952224Y-78719842D01*
X167850203Y-78537846D01*
X167747180Y-78353992D01*
X167644072Y-78169917D01*
X167541797Y-77987256D01*
X167441270Y-77807646D01*
X167343409Y-77632725D01*
X167249131Y-77464128D01*
X167159352Y-77303493D01*
X167074989Y-77152455D01*
X166996960Y-77012652D01*
X166926181Y-76885720D01*
X166863569Y-76773295D01*
X166810040Y-76677015D01*
X166766513Y-76598516D01*
X166733903Y-76539434D01*
X166713127Y-76501407D01*
X166705103Y-76486070D01*
X166706794Y-76483843D01*
X166728691Y-76479568D01*
X166771776Y-76476420D01*
X166831232Y-76474355D01*
X166902240Y-76473331D01*
X166979986Y-76473303D01*
X167059651Y-76474228D01*
X167136419Y-76476063D01*
X167205473Y-76478762D01*
X167261996Y-76482284D01*
X167301172Y-76486584D01*
X167318183Y-76491619D01*
X167325536Y-76503734D01*
X167345519Y-76538791D01*
X167376677Y-76594349D01*
X167417776Y-76668181D01*
X167467583Y-76758060D01*
X167524864Y-76861759D01*
X167588385Y-76977051D01*
X167656913Y-77101710D01*
X167729213Y-77233508D01*
X167739947Y-77253083D01*
X167820505Y-77399285D01*
X167904933Y-77551374D01*
X167992135Y-77707444D01*
X168081013Y-77865595D01*
X168170468Y-78023921D01*
X168259402Y-78180519D01*
X168346718Y-78333486D01*
X168431317Y-78480919D01*
X168512102Y-78620914D01*
X168587974Y-78751567D01*
X168657837Y-78870976D01*
X168720591Y-78977236D01*
X168775138Y-79068444D01*
X168820382Y-79142698D01*
X168855224Y-79198093D01*
X168878565Y-79232725D01*
X168889309Y-79244692D01*
X168889735Y-79244400D01*
X168900429Y-79228766D01*
X168924368Y-79190233D01*
X168960816Y-79130048D01*
X169009040Y-79049462D01*
X169068304Y-78949723D01*
X169137874Y-78832081D01*
X169217016Y-78697786D01*
X169304996Y-78548087D01*
X169401079Y-78384232D01*
X169504531Y-78207472D01*
X169614617Y-78019055D01*
X169730604Y-77820232D01*
X169851756Y-77612250D01*
X169977339Y-77396360D01*
X170106619Y-77173812D01*
X170122231Y-77146918D01*
X170280066Y-76874901D01*
X170424263Y-76626151D01*
X170555342Y-76399747D01*
X170673827Y-76194767D01*
X170780240Y-76010291D01*
X170875105Y-75845398D01*
X170958943Y-75699167D01*
X171032277Y-75570676D01*
X171095630Y-75459007D01*
X171149525Y-75363236D01*
X171194484Y-75282443D01*
X171231029Y-75215708D01*
X171259684Y-75162110D01*
X171280971Y-75120726D01*
X171295413Y-75090638D01*
X171303532Y-75070923D01*
X171305851Y-75060661D01*
X171304004Y-75043741D01*
X171298699Y-75000355D01*
X171290267Y-74933432D01*
X171279007Y-74845278D01*
X171265215Y-74738201D01*
X171249190Y-74614506D01*
X171231231Y-74476499D01*
X171211635Y-74326487D01*
X171190700Y-74166776D01*
X171168725Y-73999672D01*
X171150073Y-73857269D01*
X171128977Y-73694214D01*
X171109256Y-73539655D01*
X171091206Y-73396015D01*
X171075123Y-73265716D01*
X171061302Y-73151182D01*
X171050037Y-73054834D01*
X171041626Y-72979097D01*
X171036362Y-72926394D01*
X171034542Y-72899146D01*
X171034542Y-72817339D01*
X171350987Y-72817339D01*
X171428849Y-72817466D01*
X171514875Y-72818158D01*
X171578195Y-72819633D01*
X171621961Y-72822088D01*
X171649323Y-72825722D01*
X171663430Y-72830734D01*
X171667432Y-72837324D01*
X171667717Y-72840857D01*
X171670816Y-72867826D01*
X171676974Y-72917971D01*
X171685754Y-72987922D01*
X171696720Y-73074307D01*
X171709433Y-73173753D01*
X171723458Y-73282890D01*
X171738356Y-73398346D01*
X171753690Y-73516748D01*
X171769024Y-73634726D01*
X171783921Y-73748907D01*
X171797942Y-73855920D01*
X171810651Y-73952393D01*
X171821612Y-74034954D01*
X171830386Y-74100233D01*
X171836536Y-74144856D01*
X171839626Y-74165452D01*
X171839663Y-74165553D01*
X171847665Y-74155474D01*
X171868699Y-74122792D01*
X171901766Y-74069186D01*
X171945869Y-73996336D01*
X172000008Y-73905920D01*
X172063188Y-73799618D01*
X172134408Y-73679108D01*
X172212673Y-73546069D01*
X172296982Y-73402180D01*
X172386339Y-73249121D01*
X172479745Y-73088569D01*
X172479830Y-73088423D01*
X172573742Y-72926796D01*
X172663858Y-72771833D01*
X172749147Y-72625302D01*
X172828575Y-72488970D01*
X172901113Y-72364602D01*
X172965727Y-72253966D01*
X173021386Y-72158829D01*
X173067059Y-72080956D01*
X173101714Y-72022115D01*
X173124318Y-71984071D01*
X173133841Y-71968593D01*
X173139582Y-71962245D01*
X173153349Y-71954678D01*
X173176776Y-71949944D01*
X173214475Y-71947616D01*
X173271058Y-71947265D01*
X173351134Y-71948466D01*
G37*
G36*
X162748337Y-71647374D02*
G01*
X162750710Y-71666655D01*
X162745592Y-71668675D01*
X162716888Y-71671717D01*
X162666340Y-71674321D01*
X162597846Y-71676350D01*
X162515306Y-71677667D01*
X162422616Y-71678137D01*
X162094522Y-71678137D01*
X162085999Y-71641210D01*
X162145948Y-71641210D01*
X162154365Y-71643520D01*
X162186675Y-71646107D01*
X162238935Y-71648162D01*
X162306579Y-71649519D01*
X162385040Y-71650008D01*
X162447819Y-71649802D01*
X162518106Y-71649010D01*
X162573965Y-71647729D01*
X162610829Y-71646071D01*
X162624132Y-71644148D01*
X162621393Y-71638881D01*
X162606471Y-71614154D01*
X162581299Y-71573681D01*
X162548989Y-71522352D01*
X162512655Y-71465053D01*
X162475409Y-71406674D01*
X162440364Y-71352102D01*
X162410633Y-71306225D01*
X162389329Y-71273932D01*
X162379565Y-71260111D01*
X162375374Y-71264407D01*
X162359151Y-71287833D01*
X162333626Y-71327262D01*
X162301793Y-71377812D01*
X162266646Y-71434600D01*
X162231177Y-71492743D01*
X162198379Y-71547359D01*
X162171246Y-71593563D01*
X162152772Y-71626475D01*
X162145948Y-71641210D01*
X162085999Y-71641210D01*
X162078023Y-71606657D01*
X162074673Y-71586524D01*
X162068143Y-71540380D01*
X162058884Y-71471335D01*
X162047210Y-71381929D01*
X162033431Y-71274702D01*
X162017862Y-71152195D01*
X162000815Y-71016948D01*
X161982602Y-70871502D01*
X161963535Y-70718397D01*
X161943929Y-70560174D01*
X161924094Y-70399373D01*
X161904344Y-70238534D01*
X161884992Y-70080197D01*
X161866349Y-69926904D01*
X161848729Y-69781195D01*
X161832445Y-69645609D01*
X161817807Y-69522688D01*
X161805131Y-69414972D01*
X161794727Y-69325001D01*
X161786908Y-69255316D01*
X161781988Y-69208457D01*
X161780278Y-69186964D01*
X161780302Y-69185762D01*
X161781674Y-69180180D01*
X161786769Y-69175491D01*
X161797804Y-69171618D01*
X161816998Y-69168483D01*
X161846571Y-69166009D01*
X161888740Y-69164117D01*
X161945725Y-69162730D01*
X162019745Y-69161770D01*
X162113018Y-69161159D01*
X162227763Y-69160818D01*
X162366199Y-69160671D01*
X162530545Y-69160639D01*
X163280812Y-69160639D01*
X163262084Y-69061597D01*
X163259451Y-69046372D01*
X163252046Y-68997980D01*
X163241886Y-68926990D01*
X163229442Y-68836880D01*
X163215188Y-68731133D01*
X163199594Y-68613228D01*
X163183133Y-68486647D01*
X163166276Y-68354869D01*
X163156246Y-68276305D01*
X163139982Y-68151040D01*
X163124579Y-68034953D01*
X163110470Y-67931165D01*
X163098088Y-67842801D01*
X163087868Y-67772982D01*
X163080241Y-67724833D01*
X163075641Y-67701475D01*
X163062087Y-67655767D01*
X163732021Y-67655767D01*
X163748641Y-67750700D01*
X163757359Y-67800218D01*
X163766273Y-67850295D01*
X163772410Y-67884138D01*
X163779558Y-67922643D01*
X164805956Y-67930019D01*
X164866437Y-68084726D01*
X164926919Y-68239432D01*
X164371721Y-68243111D01*
X163816522Y-68246790D01*
X163824298Y-68292336D01*
X163826076Y-68304612D01*
X163831420Y-68344080D01*
X163839916Y-68408103D01*
X163851315Y-68494761D01*
X163865368Y-68602133D01*
X163881823Y-68728300D01*
X163900431Y-68871340D01*
X163920942Y-69029333D01*
X163943106Y-69200359D01*
X163966672Y-69382498D01*
X163991391Y-69573830D01*
X164017013Y-69772433D01*
X164201953Y-71206985D01*
X164334250Y-71436540D01*
X164335373Y-71438488D01*
X164376759Y-71510798D01*
X164412759Y-71574600D01*
X164441182Y-71625943D01*
X164459840Y-71660874D01*
X164466546Y-71675441D01*
X164465092Y-71680867D01*
X164455268Y-71708536D01*
X164437709Y-71755036D01*
X164414215Y-71815635D01*
X164386588Y-71885600D01*
X164375597Y-71912878D01*
X164345889Y-71982946D01*
X164321438Y-72034979D01*
X164303633Y-72066155D01*
X164293867Y-72073652D01*
X164289599Y-72067997D01*
X164272239Y-72040940D01*
X164245123Y-71996389D01*
X164211005Y-71938901D01*
X164172636Y-71873030D01*
X164064166Y-71685169D01*
X163829365Y-71681313D01*
X163800062Y-71680759D01*
X163712891Y-71678002D01*
X163648369Y-71674034D01*
X163608319Y-71668998D01*
X163594564Y-71663034D01*
X163594559Y-71662785D01*
X163592622Y-71643736D01*
X163587405Y-71599542D01*
X163579242Y-71532818D01*
X163568470Y-71446177D01*
X163555425Y-71342234D01*
X163540442Y-71223604D01*
X163523857Y-71092900D01*
X163506006Y-70952739D01*
X163487225Y-70805733D01*
X163467850Y-70654498D01*
X163448216Y-70501648D01*
X163428660Y-70349798D01*
X163409516Y-70201561D01*
X163391122Y-70059553D01*
X163373812Y-69926387D01*
X163357923Y-69804679D01*
X163343789Y-69697043D01*
X163331748Y-69606093D01*
X163322135Y-69534443D01*
X163315286Y-69484709D01*
X163311536Y-69459504D01*
X163296328Y-69371603D01*
X163220418Y-69371603D01*
X163189944Y-69372391D01*
X163157218Y-69375773D01*
X163144509Y-69380915D01*
X163146772Y-69388029D01*
X163159713Y-69414466D01*
X163180304Y-69451309D01*
X163183561Y-69457027D01*
X163193752Y-69478047D01*
X163202960Y-69503873D01*
X163211799Y-69537811D01*
X163220882Y-69583163D01*
X163230823Y-69643234D01*
X163242235Y-69721327D01*
X163255731Y-69820745D01*
X163271924Y-69944792D01*
X163278166Y-69993422D01*
X163291270Y-70097478D01*
X163302735Y-70191225D01*
X163312152Y-70271148D01*
X163319113Y-70333730D01*
X163323209Y-70375457D01*
X163324030Y-70392813D01*
X163321074Y-70390540D01*
X163305798Y-70368647D01*
X163278844Y-70326208D01*
X163241668Y-70265629D01*
X163195725Y-70189316D01*
X163142470Y-70099673D01*
X163083357Y-69999105D01*
X163019842Y-69890017D01*
X162719373Y-69371603D01*
X162483490Y-69371603D01*
X162483490Y-69459557D01*
X162484177Y-69473221D01*
X162487907Y-69515865D01*
X162494586Y-69581869D01*
X162503879Y-69668448D01*
X162515455Y-69772815D01*
X162528981Y-69892186D01*
X162544123Y-70023774D01*
X162560549Y-70164794D01*
X162577926Y-70312460D01*
X162595922Y-70463987D01*
X162614203Y-70616589D01*
X162632436Y-70767481D01*
X162650290Y-70913876D01*
X162667431Y-71052989D01*
X162683526Y-71182035D01*
X162698243Y-71298228D01*
X162711248Y-71398782D01*
X162722210Y-71480911D01*
X162730794Y-71541830D01*
X162736669Y-71578754D01*
X162742233Y-71609978D01*
X162747810Y-71644148D01*
X162748337Y-71647374D01*
G37*
G36*
X175912945Y-68277631D02*
G01*
X175893497Y-68317253D01*
X175858099Y-68387107D01*
X175667264Y-68387107D01*
X175520311Y-68604715D01*
X175373357Y-68822324D01*
X175258125Y-68822711D01*
X175235560Y-68822858D01*
X175185322Y-68824532D01*
X175154040Y-68829287D01*
X175134878Y-68838703D01*
X175120998Y-68854356D01*
X175106428Y-68877949D01*
X175099104Y-68896548D01*
X175100157Y-68898046D01*
X175119707Y-68902854D01*
X175158857Y-68906217D01*
X175210931Y-68907483D01*
X175322758Y-68907483D01*
X175260396Y-69012965D01*
X175198033Y-69118447D01*
X175266497Y-69118447D01*
X175268570Y-69118444D01*
X175312303Y-69115752D01*
X175338716Y-69105338D01*
X175357999Y-69083286D01*
X175368198Y-69069503D01*
X175386944Y-69055721D01*
X175416342Y-69049548D01*
X175465099Y-69048125D01*
X175503178Y-69048805D01*
X175536381Y-69051063D01*
X175549160Y-69054354D01*
X175548362Y-69057142D01*
X175538052Y-69078040D01*
X175519642Y-69110611D01*
X175501379Y-69138711D01*
X175482912Y-69153688D01*
X175454988Y-69159600D01*
X175408275Y-69160639D01*
X175364074Y-69161562D01*
X175334818Y-69167101D01*
X175315633Y-69181251D01*
X175297151Y-69208008D01*
X175291423Y-69217449D01*
X175274630Y-69247673D01*
X175267875Y-69264265D01*
X175270652Y-69267587D01*
X175292418Y-69272097D01*
X175327649Y-69273157D01*
X175366487Y-69271112D01*
X175399073Y-69266307D01*
X175415550Y-69259089D01*
X175430432Y-69253757D01*
X175469264Y-69249149D01*
X175527078Y-69246116D01*
X175599122Y-69245025D01*
X175774003Y-69245025D01*
X175641261Y-69512245D01*
X175468632Y-69512245D01*
X175463697Y-69512242D01*
X175398393Y-69511602D01*
X175345093Y-69510006D01*
X175309172Y-69507683D01*
X175296004Y-69504862D01*
X175296323Y-69503388D01*
X175304681Y-69483464D01*
X175322072Y-69446594D01*
X175345405Y-69399380D01*
X175394807Y-69301282D01*
X175242397Y-69301282D01*
X174966727Y-69782982D01*
X174691057Y-70264681D01*
X174845856Y-70268658D01*
X174899628Y-70270465D01*
X174951971Y-70273246D01*
X174987538Y-70276370D01*
X175000655Y-70279441D01*
X175000634Y-70279638D01*
X174994036Y-70295382D01*
X174977304Y-70330858D01*
X174952875Y-70380995D01*
X174923184Y-70440719D01*
X174845713Y-70595191D01*
X174641899Y-70595191D01*
X174610350Y-70595112D01*
X174542403Y-70594353D01*
X174487746Y-70592918D01*
X174451325Y-70590965D01*
X174438086Y-70588653D01*
X174442198Y-70579772D01*
X174458285Y-70550948D01*
X174483710Y-70507453D01*
X174515439Y-70454549D01*
X174540271Y-70413250D01*
X174567426Y-70367107D01*
X174585945Y-70334418D01*
X174592792Y-70320444D01*
X174592666Y-70319958D01*
X174578214Y-70315768D01*
X174547083Y-70314220D01*
X174544610Y-70314246D01*
X174531368Y-70315345D01*
X174518834Y-70319946D01*
X174505162Y-70330659D01*
X174488508Y-70350092D01*
X174467028Y-70380853D01*
X174438878Y-70425551D01*
X174402212Y-70486792D01*
X174355187Y-70567187D01*
X174295958Y-70669342D01*
X174090542Y-71024150D01*
X174161007Y-71031182D01*
X174231473Y-71038214D01*
X174193514Y-71083178D01*
X174170416Y-71107073D01*
X174137394Y-71125251D01*
X174090389Y-71132402D01*
X174025224Y-71136664D01*
X173873403Y-71396852D01*
X173856846Y-71425287D01*
X173813646Y-71500065D01*
X173776404Y-71565379D01*
X173747197Y-71617534D01*
X173728102Y-71652835D01*
X173721196Y-71667588D01*
X173721546Y-71667930D01*
X173739361Y-71669990D01*
X173782195Y-71671906D01*
X173847367Y-71673640D01*
X173932201Y-71675150D01*
X174034015Y-71676396D01*
X174150132Y-71677336D01*
X174277873Y-71677930D01*
X174414558Y-71678137D01*
X175108307Y-71678137D01*
X175124456Y-71766038D01*
X175125433Y-71771882D01*
X175130511Y-71806634D01*
X175138804Y-71866753D01*
X175150066Y-71950362D01*
X175164051Y-72055584D01*
X175180515Y-72180544D01*
X175199212Y-72323362D01*
X175219897Y-72482164D01*
X175242324Y-72655072D01*
X175266249Y-72840210D01*
X175291426Y-73035699D01*
X175317610Y-73239665D01*
X175344555Y-73450230D01*
X175354382Y-73527101D01*
X175381031Y-73735138D01*
X175406803Y-73935714D01*
X175431456Y-74126971D01*
X175454746Y-74307051D01*
X175476431Y-74474094D01*
X175496268Y-74626243D01*
X175514015Y-74761639D01*
X175529428Y-74878424D01*
X175542266Y-74974738D01*
X175552284Y-75048724D01*
X175559242Y-75098523D01*
X175562896Y-75122277D01*
X175568194Y-75152016D01*
X175574734Y-75195937D01*
X175577288Y-75224242D01*
X175577207Y-75226788D01*
X175574815Y-75234245D01*
X175566703Y-75239948D01*
X175549670Y-75244132D01*
X175520515Y-75247031D01*
X175476037Y-75248878D01*
X175413034Y-75249908D01*
X175328306Y-75250354D01*
X175218650Y-75250451D01*
X174860013Y-75250451D01*
X174860013Y-75191177D01*
X174859937Y-75188818D01*
X174857635Y-75161402D01*
X174852280Y-75108316D01*
X174844083Y-75031419D01*
X174833255Y-74932576D01*
X174820006Y-74813648D01*
X174804546Y-74676497D01*
X174787088Y-74522986D01*
X174767840Y-74354976D01*
X174747015Y-74174330D01*
X174724822Y-73982910D01*
X174701473Y-73782578D01*
X174677178Y-73575195D01*
X174671714Y-73528652D01*
X174647625Y-73322908D01*
X174624527Y-73124761D01*
X174602631Y-72936060D01*
X174582147Y-72758653D01*
X174563285Y-72594390D01*
X174546256Y-72445119D01*
X174531270Y-72312689D01*
X174518537Y-72198948D01*
X174508267Y-72105746D01*
X174500672Y-72034931D01*
X174495960Y-71988353D01*
X174494343Y-71967859D01*
X174494343Y-71917228D01*
X173057636Y-71917228D01*
X173061834Y-71965955D01*
X173061301Y-71980756D01*
X173056354Y-72001232D01*
X173045692Y-72029115D01*
X173028071Y-72066798D01*
X173002253Y-72116674D01*
X172966995Y-72181138D01*
X172921057Y-72262582D01*
X172863197Y-72363401D01*
X172792175Y-72485986D01*
X172778049Y-72510280D01*
X172717994Y-72613156D01*
X172662598Y-72707415D01*
X172613429Y-72790435D01*
X172572055Y-72859591D01*
X172540042Y-72912259D01*
X172518960Y-72945815D01*
X172510375Y-72957637D01*
X172507953Y-72947566D01*
X172502722Y-72912750D01*
X172495252Y-72856351D01*
X172485929Y-72781795D01*
X172475140Y-72692505D01*
X172463271Y-72591904D01*
X172450709Y-72483417D01*
X172437841Y-72370467D01*
X172425053Y-72256478D01*
X172412733Y-72144874D01*
X172401266Y-72039078D01*
X172391040Y-71942514D01*
X172382440Y-71858607D01*
X172375854Y-71790779D01*
X172371669Y-71742455D01*
X172370271Y-71717059D01*
X172370644Y-71678628D01*
X171675718Y-71671104D01*
X171657199Y-71579687D01*
X171656805Y-71577612D01*
X171652323Y-71547673D01*
X171644960Y-71491979D01*
X171634944Y-71412451D01*
X171622504Y-71311011D01*
X171607865Y-71189580D01*
X171591257Y-71050079D01*
X171572907Y-70894430D01*
X171553043Y-70724554D01*
X171531892Y-70542372D01*
X171509682Y-70349806D01*
X171486641Y-70148776D01*
X171462996Y-69941204D01*
X171459202Y-69907806D01*
X171435696Y-69701615D01*
X171412869Y-69502548D01*
X171390944Y-69312499D01*
X171370146Y-69133363D01*
X171350699Y-68967031D01*
X171332826Y-68815398D01*
X171316752Y-68680358D01*
X171302701Y-68563802D01*
X171290896Y-68467625D01*
X171281562Y-68393721D01*
X171274923Y-68343982D01*
X171271203Y-68320302D01*
X171258178Y-68276952D01*
X171246509Y-68256258D01*
X171948717Y-68256258D01*
X171949067Y-68259971D01*
X171952351Y-68287533D01*
X171958869Y-68339966D01*
X171968352Y-68415172D01*
X171980527Y-68511055D01*
X171995124Y-68625517D01*
X172011873Y-68756463D01*
X172030503Y-68901795D01*
X172050742Y-69059417D01*
X172072320Y-69227231D01*
X172094967Y-69403141D01*
X172118410Y-69585051D01*
X172142381Y-69770864D01*
X172166606Y-69958482D01*
X172190817Y-70145809D01*
X172214742Y-70330748D01*
X172238110Y-70511203D01*
X172260651Y-70685076D01*
X172282093Y-70850272D01*
X172302167Y-71004693D01*
X172320600Y-71146242D01*
X172337122Y-71272823D01*
X172351463Y-71382338D01*
X172363352Y-71472692D01*
X172372517Y-71541788D01*
X172378688Y-71587528D01*
X172381594Y-71607815D01*
X172392510Y-71671104D01*
X173297566Y-71678524D01*
X173365858Y-71562301D01*
X173367134Y-71560127D01*
X173388999Y-71522738D01*
X173423139Y-71464175D01*
X173467867Y-71387342D01*
X173521493Y-71295143D01*
X173582329Y-71190483D01*
X173648687Y-71076264D01*
X173718878Y-70955391D01*
X173791214Y-70830767D01*
X174148277Y-70215457D01*
X174305480Y-70215457D01*
X174915154Y-69153607D01*
X174845391Y-69149356D01*
X174820577Y-69147457D01*
X174788272Y-69143356D01*
X174775627Y-69139213D01*
X174776975Y-69135725D01*
X174788967Y-69113042D01*
X174810703Y-69074614D01*
X174838916Y-69026272D01*
X174851901Y-69004185D01*
X174877670Y-68959486D01*
X174895527Y-68927266D01*
X174902205Y-68913353D01*
X174902196Y-68913293D01*
X174888405Y-68911035D01*
X174852058Y-68909188D01*
X174798589Y-68907941D01*
X174733434Y-68907483D01*
X174731642Y-68907483D01*
X174666762Y-68906620D01*
X174613743Y-68904348D01*
X174578008Y-68901006D01*
X174564976Y-68896935D01*
X174571669Y-68881438D01*
X174589589Y-68855102D01*
X174596325Y-68847117D01*
X174610132Y-68836357D01*
X174630811Y-68829206D01*
X174663676Y-68824716D01*
X174714041Y-68821943D01*
X174787220Y-68819941D01*
X174960551Y-68816066D01*
X175091235Y-68584006D01*
X175221918Y-68351946D01*
X175643418Y-68344204D01*
X175662643Y-68305882D01*
X175677500Y-68276181D01*
X175687007Y-68257013D01*
X175684943Y-68256486D01*
X175660775Y-68255224D01*
X175610768Y-68254010D01*
X175536549Y-68252854D01*
X175439743Y-68251764D01*
X175321978Y-68250750D01*
X175184878Y-68249820D01*
X175030070Y-68248985D01*
X174859181Y-68248253D01*
X174673837Y-68247634D01*
X174475664Y-68247136D01*
X174266287Y-68246769D01*
X174047335Y-68246542D01*
X173820432Y-68246464D01*
X173727914Y-68246476D01*
X173503892Y-68246605D01*
X173288412Y-68246870D01*
X173083106Y-68247261D01*
X172889607Y-68247770D01*
X172709546Y-68248389D01*
X172544556Y-68249108D01*
X172396270Y-68249921D01*
X172266318Y-68250817D01*
X172156334Y-68251788D01*
X172067950Y-68252827D01*
X172002797Y-68253923D01*
X171962509Y-68255070D01*
X171948717Y-68256258D01*
X171246509Y-68256258D01*
X171243234Y-68250450D01*
X171230312Y-68244254D01*
X171222953Y-68259970D01*
X171224699Y-68299205D01*
X171225778Y-68307629D01*
X171229982Y-68342769D01*
X171236945Y-68402192D01*
X171246429Y-68483809D01*
X171258193Y-68585532D01*
X171272001Y-68705271D01*
X171287612Y-68840937D01*
X171304789Y-68990440D01*
X171323293Y-69151693D01*
X171342885Y-69322605D01*
X171363326Y-69501087D01*
X171384378Y-69685051D01*
X171405802Y-69872407D01*
X171427360Y-70061066D01*
X171448812Y-70248939D01*
X171469919Y-70433937D01*
X171490445Y-70613970D01*
X171510149Y-70786950D01*
X171528792Y-70950787D01*
X171546137Y-71103393D01*
X171561945Y-71242677D01*
X171575977Y-71366552D01*
X171587993Y-71472927D01*
X171597757Y-71559714D01*
X171605028Y-71624823D01*
X171609568Y-71666166D01*
X171611139Y-71681653D01*
X171599351Y-71689052D01*
X171570299Y-71692201D01*
X171560529Y-71692429D01*
X171537413Y-71698782D01*
X171534364Y-71716813D01*
X171534950Y-71719797D01*
X171540822Y-71752518D01*
X171547748Y-71794166D01*
X171556193Y-71846907D01*
X171638824Y-71846907D01*
X171685011Y-71847749D01*
X171710770Y-71852378D01*
X171723076Y-71863941D01*
X171729287Y-71885584D01*
X171733583Y-71909672D01*
X171741378Y-71959487D01*
X171751008Y-72025242D01*
X171761738Y-72101464D01*
X171772834Y-72182682D01*
X171783561Y-72263423D01*
X171793183Y-72338216D01*
X171800966Y-72401588D01*
X171803426Y-72423541D01*
X171806175Y-72448068D01*
X171808075Y-72472184D01*
X171808075Y-72507926D01*
X171134266Y-72507926D01*
X171125660Y-72455185D01*
X171124589Y-72448588D01*
X171120654Y-72423541D01*
X171203313Y-72423541D01*
X171723689Y-72423541D01*
X171722586Y-72391896D01*
X171721846Y-72382185D01*
X171717759Y-72345358D01*
X171710767Y-72289317D01*
X171701589Y-72219728D01*
X171690942Y-72142256D01*
X171660400Y-71924261D01*
X171614691Y-71919853D01*
X171609451Y-71919307D01*
X171591666Y-71917598D01*
X171579709Y-71919762D01*
X171573149Y-71929811D01*
X171571559Y-71951755D01*
X171574509Y-71989605D01*
X171581571Y-72047373D01*
X171592315Y-72129069D01*
X171593216Y-72136020D01*
X171601170Y-72204821D01*
X171606383Y-72264216D01*
X171608415Y-72308062D01*
X171606820Y-72330218D01*
X171604246Y-72335057D01*
X171593641Y-72342891D01*
X171572334Y-72348139D01*
X171535970Y-72351285D01*
X171480195Y-72352817D01*
X171400653Y-72353220D01*
X171203313Y-72353220D01*
X171203313Y-72423541D01*
X171120654Y-72423541D01*
X171118333Y-72408763D01*
X171114351Y-72381348D01*
X171107043Y-72370143D01*
X171079316Y-72359969D01*
X171027386Y-72353220D01*
X170943124Y-72346188D01*
X170926472Y-72261802D01*
X170924396Y-72250641D01*
X170916161Y-72198594D01*
X170906508Y-72128701D01*
X170896472Y-72048731D01*
X170887090Y-71966453D01*
X170883512Y-71933602D01*
X170875063Y-71858699D01*
X170867324Y-71793550D01*
X170861031Y-71744230D01*
X170856917Y-71716813D01*
X170849472Y-71678137D01*
X171442405Y-71678137D01*
X171442061Y-71646492D01*
X171441829Y-71640571D01*
X171437190Y-71602523D01*
X171428572Y-71557951D01*
X171428154Y-71555858D01*
X171424236Y-71529136D01*
X171417433Y-71476696D01*
X171407963Y-71400402D01*
X171396047Y-71302116D01*
X171381904Y-71183700D01*
X171365753Y-71047016D01*
X171347813Y-70893928D01*
X171328303Y-70726297D01*
X171307444Y-70545986D01*
X171285453Y-70354857D01*
X171262551Y-70154773D01*
X171238957Y-69947596D01*
X171234546Y-69908787D01*
X171210998Y-69702332D01*
X171188135Y-69503052D01*
X171166178Y-69312836D01*
X171145353Y-69133573D01*
X171125883Y-68967153D01*
X171107991Y-68815463D01*
X171091901Y-68680393D01*
X171077837Y-68563831D01*
X171066021Y-68467666D01*
X171056679Y-68393787D01*
X171050034Y-68344083D01*
X171046308Y-68320442D01*
X171030129Y-68246745D01*
X170388897Y-68243089D01*
X169747665Y-68239432D01*
X169695863Y-68091758D01*
X169678069Y-68040340D01*
X169660229Y-67987085D01*
X169647926Y-67948310D01*
X169643121Y-67930019D01*
X169645932Y-67929534D01*
X169671862Y-67928501D01*
X169723684Y-67927524D01*
X169799854Y-67926604D01*
X169898832Y-67925742D01*
X170019076Y-67924937D01*
X170159044Y-67924189D01*
X170317195Y-67923499D01*
X170491987Y-67922867D01*
X170681879Y-67922292D01*
X170885329Y-67921776D01*
X171100795Y-67921318D01*
X171326737Y-67920919D01*
X171561611Y-67920579D01*
X171803878Y-67920297D01*
X172051994Y-67920074D01*
X172304419Y-67919910D01*
X172559611Y-67919806D01*
X172816028Y-67919762D01*
X173072129Y-67919777D01*
X173326372Y-67919851D01*
X173577216Y-67919986D01*
X173823119Y-67920182D01*
X174062539Y-67920437D01*
X174293935Y-67920753D01*
X174515766Y-67921130D01*
X174726489Y-67921567D01*
X174924563Y-67922066D01*
X175108447Y-67922626D01*
X175276598Y-67923247D01*
X175427476Y-67923930D01*
X175559539Y-67924675D01*
X175671245Y-67925481D01*
X175761052Y-67926350D01*
X175827420Y-67927281D01*
X175868805Y-67928274D01*
X175883668Y-67929330D01*
X175883812Y-67929499D01*
X175880215Y-67944149D01*
X175865111Y-67970992D01*
X175861786Y-67975954D01*
X175846829Y-67993041D01*
X175826687Y-68002488D01*
X175793718Y-68006522D01*
X175740279Y-68007372D01*
X175639284Y-68007372D01*
X175596660Y-68110921D01*
X175554037Y-68214470D01*
X175680337Y-68223435D01*
X175699274Y-68224734D01*
X175765132Y-68228642D01*
X175824965Y-68231373D01*
X175867766Y-68232400D01*
X175884694Y-68232694D01*
X175916339Y-68235360D01*
X175928894Y-68239900D01*
X175925802Y-68249057D01*
X175922222Y-68257013D01*
X175912945Y-68277631D01*
G37*
%TO.C,J21*%
X114318000Y-115311000D02*
X119928000Y-115311000D01*
X114318000Y-115311000D02*
X114318000Y-116161000D01*
X106618000Y-116161000D02*
X114318000Y-116161000D01*
X106618000Y-116161000D02*
X106618000Y-130181000D01*
X124038000Y-120721000D02*
X124038000Y-124461000D01*
X114318000Y-130181000D02*
X114318000Y-131031000D01*
X106618000Y-130181000D02*
X114318000Y-130181000D01*
X114318000Y-131031000D02*
X119928000Y-131031000D01*
X123886718Y-118181100D02*
G75*
G03*
X119928000Y-115311001I-3918716J-1239898D01*
G01*
X119928000Y-131031000D02*
G75*
G03*
X123450958Y-129037806I0J4110000D01*
G01*
%TO.C,J18*%
X177930000Y-64781000D02*
X172320000Y-64781000D01*
X177930000Y-64781000D02*
X177930000Y-63931000D01*
X185630000Y-63931000D02*
X177930000Y-63931000D01*
X185630000Y-63931000D02*
X185630000Y-49911000D01*
X168210000Y-59371000D02*
X168210000Y-55631000D01*
X177930000Y-49911000D02*
X177930000Y-49061000D01*
X185630000Y-49911000D02*
X177930000Y-49911000D01*
X177930000Y-49061000D02*
X172320000Y-49061000D01*
X168361282Y-61910900D02*
G75*
G03*
X172320000Y-64780999I3918716J1239898D01*
G01*
X172320000Y-49061000D02*
G75*
G03*
X168797042Y-51054194I0J-4110000D01*
G01*
%TO.C,R8*%
X126365000Y-132945000D02*
X126365000Y-132175000D01*
X124995000Y-132175000D02*
X124995000Y-125635000D01*
X127735000Y-132175000D02*
X124995000Y-132175000D01*
X124995000Y-125635000D02*
X127735000Y-125635000D01*
X127735000Y-125635000D02*
X127735000Y-132175000D01*
X126365000Y-124865000D02*
X126365000Y-125635000D01*
%TO.C,R7*%
X135485000Y-137160000D02*
X134715000Y-137160000D01*
X134715000Y-138530000D02*
X128175000Y-138530000D01*
X134715000Y-135790000D02*
X134715000Y-138530000D01*
X128175000Y-138530000D02*
X128175000Y-135790000D01*
X128175000Y-135790000D02*
X134715000Y-135790000D01*
X127405000Y-137160000D02*
X128175000Y-137160000D01*
%TO.C,Q1*%
X169440000Y-110435000D02*
X165840000Y-110435000D01*
X169478478Y-110423478D02*
G75*
G03*
X167640000Y-105985000I-1838478J1838478D01*
G01*
X167640000Y-105985000D02*
G75*
G03*
X165801522Y-110423478I0J-2600000D01*
G01*
%TO.C,J17*%
X138190000Y-148375000D02*
X138190000Y-134065000D01*
X138190000Y-148375000D02*
X153910000Y-148375000D01*
X144760000Y-129955000D02*
X148500000Y-129955000D01*
X153910000Y-148375000D02*
X153910000Y-134065000D01*
X140183194Y-130542042D02*
G75*
G03*
X138190000Y-134065000I2116805J-3522957D01*
G01*
X153910000Y-134065000D02*
G75*
G03*
X151001648Y-130134587I-4110000J0D01*
G01*
%TD*%
M02*
