%TF.GenerationSoftware,KiCad,Pcbnew,7.0.10-7.0.10~ubuntu22.04.1*%
%TF.CreationDate,2024-02-03T16:17:43+09:00*%
%TF.ProjectId,TurtlePico,54757274-6c65-4506-9963-6f2e6b696361,rev?*%
%TF.SameCoordinates,Original*%
%TF.FileFunction,Paste,Top*%
%TF.FilePolarity,Positive*%
%FSLAX46Y46*%
G04 Gerber Fmt 4.6, Leading zero omitted, Abs format (unit mm)*
G04 Created by KiCad (PCBNEW 7.0.10-7.0.10~ubuntu22.04.1) date 2024-02-03 16:17:43*
%MOMM*%
%LPD*%
G01*
G04 APERTURE LIST*
G04 Aperture macros list*
%AMRoundRect*
0 Rectangle with rounded corners*
0 $1 Rounding radius*
0 $2 $3 $4 $5 $6 $7 $8 $9 X,Y pos of 4 corners*
0 Add a 4 corners polygon primitive as box body*
4,1,4,$2,$3,$4,$5,$6,$7,$8,$9,$2,$3,0*
0 Add four circle primitives for the rounded corners*
1,1,$1+$1,$2,$3*
1,1,$1+$1,$4,$5*
1,1,$1+$1,$6,$7*
1,1,$1+$1,$8,$9*
0 Add four rect primitives between the rounded corners*
20,1,$1+$1,$2,$3,$4,$5,0*
20,1,$1+$1,$4,$5,$6,$7,0*
20,1,$1+$1,$6,$7,$8,$9,0*
20,1,$1+$1,$8,$9,$2,$3,0*%
G04 Aperture macros list end*
%ADD10RoundRect,0.200000X-0.200000X-0.275000X0.200000X-0.275000X0.200000X0.275000X-0.200000X0.275000X0*%
%ADD11RoundRect,0.200000X-0.275000X0.200000X-0.275000X-0.200000X0.275000X-0.200000X0.275000X0.200000X0*%
%ADD12R,0.800000X0.900000*%
%ADD13RoundRect,0.200000X0.200000X0.275000X-0.200000X0.275000X-0.200000X-0.275000X0.200000X-0.275000X0*%
%ADD14R,0.250000X0.500000*%
%ADD15R,2.000000X0.900000*%
%ADD16RoundRect,0.225000X0.250000X-0.225000X0.250000X0.225000X-0.250000X0.225000X-0.250000X-0.225000X0*%
%ADD17R,1.050000X0.650000*%
%ADD18RoundRect,0.250000X-0.550000X1.050000X-0.550000X-1.050000X0.550000X-1.050000X0.550000X1.050000X0*%
%ADD19RoundRect,0.225000X-0.225000X-0.250000X0.225000X-0.250000X0.225000X0.250000X-0.225000X0.250000X0*%
%ADD20R,1.200000X0.700000*%
%ADD21R,0.800000X1.000000*%
%ADD22R,1.200000X1.000000*%
%ADD23R,2.800000X1.000000*%
%ADD24R,1.900000X1.300000*%
%ADD25RoundRect,0.250000X1.050000X0.550000X-1.050000X0.550000X-1.050000X-0.550000X1.050000X-0.550000X0*%
%ADD26RoundRect,0.100000X-0.100000X0.637500X-0.100000X-0.637500X0.100000X-0.637500X0.100000X0.637500X0*%
%ADD27R,1.150000X0.600000*%
%ADD28R,1.150000X0.300000*%
%ADD29RoundRect,0.250000X0.550000X-1.050000X0.550000X1.050000X-0.550000X1.050000X-0.550000X-1.050000X0*%
%ADD30RoundRect,0.225000X-0.250000X0.225000X-0.250000X-0.225000X0.250000X-0.225000X0.250000X0.225000X0*%
%ADD31RoundRect,0.225000X0.225000X0.250000X-0.225000X0.250000X-0.225000X-0.250000X0.225000X-0.250000X0*%
G04 APERTURE END LIST*
D10*
%TO.C,R4*%
X166561000Y-71628000D03*
X168211000Y-71628000D03*
%TD*%
D11*
%TO.C,R8*%
X139192000Y-63500000D03*
X139192000Y-65150000D03*
%TD*%
D12*
%TO.C,Q2*%
X127894000Y-116840000D03*
X129794000Y-116840000D03*
X128844000Y-114440000D03*
%TD*%
D13*
%TO.C,R7*%
X143510000Y-63500000D03*
X141860000Y-63500000D03*
%TD*%
D14*
%TO.C,IC1*%
X145796000Y-125984000D03*
X145296000Y-125984000D03*
X144796000Y-125984000D03*
X144296000Y-125984000D03*
X143796000Y-125984000D03*
X143296000Y-125984000D03*
X143296000Y-127884000D03*
X143796000Y-127884000D03*
X144296000Y-127884000D03*
X144796000Y-127884000D03*
X145296000Y-127884000D03*
X145796000Y-127884000D03*
D15*
X144546000Y-126934000D03*
%TD*%
D10*
%TO.C,R6*%
X128778000Y-112776000D03*
X130428000Y-112776000D03*
%TD*%
D13*
%TO.C,R5*%
X163385000Y-112839000D03*
X161735000Y-112839000D03*
%TD*%
D16*
%TO.C,C2*%
X163957000Y-92202000D03*
X163957000Y-90652000D03*
%TD*%
D17*
%TO.C,SW2*%
X125179000Y-124655000D03*
X125179000Y-126805000D03*
X129329000Y-124655000D03*
X129329000Y-126805000D03*
%TD*%
D18*
%TO.C,C6*%
X128270000Y-76940000D03*
X128270000Y-80540000D03*
%TD*%
D10*
%TO.C,R3*%
X171958000Y-84328000D03*
X173608000Y-84328000D03*
%TD*%
D16*
%TO.C,C3*%
X126238000Y-67818000D03*
X126238000Y-66268000D03*
%TD*%
D19*
%TO.C,C9*%
X147815000Y-126746000D03*
X149365000Y-126746000D03*
%TD*%
D17*
%TO.C,SW1*%
X162263000Y-124655000D03*
X162263000Y-126805000D03*
X166413000Y-124655000D03*
X166413000Y-126805000D03*
%TD*%
D20*
%TO.C,J11*%
X161133000Y-100760000D03*
X161133000Y-101860000D03*
X161133000Y-102960000D03*
X161133000Y-104060000D03*
X161133000Y-105160000D03*
X161133000Y-106260000D03*
X161133000Y-107360000D03*
X161133000Y-108460000D03*
X161133000Y-109410000D03*
D21*
X171633000Y-110360000D03*
D22*
X165433000Y-110360000D03*
D23*
X175783000Y-110360000D03*
D22*
X161133000Y-99210000D03*
D24*
X176233000Y-96860000D03*
%TD*%
D25*
%TO.C,C8*%
X120418000Y-80010000D03*
X116818000Y-80010000D03*
%TD*%
D10*
%TO.C,R1*%
X166561000Y-75692000D03*
X168211000Y-75692000D03*
%TD*%
D26*
%TO.C,U1*%
X126115000Y-69527500D03*
X125465000Y-69527500D03*
X124815000Y-69527500D03*
X124165000Y-69527500D03*
X123515000Y-69527500D03*
X122865000Y-69527500D03*
X122215000Y-69527500D03*
X121565000Y-69527500D03*
X120915000Y-69527500D03*
X120265000Y-69527500D03*
X120265000Y-75252500D03*
X120915000Y-75252500D03*
X121565000Y-75252500D03*
X122215000Y-75252500D03*
X122865000Y-75252500D03*
X123515000Y-75252500D03*
X124165000Y-75252500D03*
X124815000Y-75252500D03*
X125465000Y-75252500D03*
X126115000Y-75252500D03*
%TD*%
D19*
%TO.C,C10*%
X147828000Y-128270000D03*
X149378000Y-128270000D03*
%TD*%
D27*
%TO.C,J1*%
X170143700Y-76350400D03*
X170143700Y-75550000D03*
D28*
X170272500Y-74400000D03*
X170272500Y-73400000D03*
X170272500Y-72900000D03*
X170272500Y-71900000D03*
D27*
X170143700Y-69950000D03*
X170143700Y-70750000D03*
D28*
X170272500Y-71400000D03*
X170272500Y-72400000D03*
X170272500Y-73900000D03*
X170272500Y-74900000D03*
%TD*%
D18*
%TO.C,C7*%
X116840000Y-71225000D03*
X116840000Y-74825000D03*
%TD*%
D29*
%TO.C,C5*%
X129540000Y-69110000D03*
X129540000Y-65510000D03*
%TD*%
D11*
%TO.C,R2*%
X162306000Y-90678000D03*
X162306000Y-92328000D03*
%TD*%
D12*
%TO.C,Q1*%
X162438000Y-116840000D03*
X164338000Y-116840000D03*
X163388000Y-114440000D03*
%TD*%
D30*
%TO.C,C4*%
X127508000Y-71107000D03*
X127508000Y-72657000D03*
%TD*%
D31*
%TO.C,C1*%
X173622000Y-86106000D03*
X172072000Y-86106000D03*
%TD*%
M02*
